<svg id="a61cc922-b0cb-4f1f-b801-48a4982bfe91" data-name="Capa 1" xmlns="http://www.w3.org/2000/svg" viewBox="0 0 345.47 512">
  <rect x="157.74" y="195.66" width="30" height="60.34" fill="#ff8900" />
  <polygon points="283.39 375.83 302.23 417.91 262.25 440.87 252.77 485.99 206.93 481.06 172.74 512 138.54 481.06 92.7 485.99 83.22 440.87 43.24 417.91 62.09 375.83 43.24 333.75 83.22 310.8 92.7 265.68 138.54 270.6 172.74 239.67 206.93 270.6 252.77 265.68 262.25 310.8 302.23 333.75 283.39 375.83" fill="#ffb74d" />
  <circle cx="172.74" cy="375.83" r="77.57" fill="#ffda2d" />
  <polygon points="283.39 375.83 302.23 417.91 262.25 440.87 252.77 485.99 206.93 481.06 172.74 512 172.74 239.67 206.93 270.6 252.77 265.68 262.25 310.8 302.23 333.75 283.39 375.83" fill="#ff9800" />
  <path d="M172.74,453.4V298.27a77.57,77.57,0,0,1,0,155.13Z" fill="#fdbf00" />
  <polygon points="218.53 0 159.46 112.36 132.61 180.66 132.61 195.66 132.61 195.66 132.61 195.66 132.61 210.66 234.71 210.66 345.47 0 218.53 0" fill="#e70020" />
  <polygon points="126.94 0 0 0 110.76 210.66 237.7 210.66 126.94 0" fill="#ff623f" />
  <rect x="172.74" y="195.66" width="15" height="60.34" fill="#e57500" />
  <rect x="73.84" y="180.66" width="197.8" height="30" fill="#ffb74d" />
  <rect x="172.74" y="180.66" width="98.9" height="30" fill="#ff9a00" />
</svg>