<svg id="a6d1c2bf-9fef-493d-8695-0f2f088d9932" xmlns="http://www.w3.org/2000/svg" viewBox="0 0 513.37 370"><title>carta-enviada</title><path d="M497,370H15A15,15,0,0,1,0,355V15A15,15,0,0,1,15,0H497a15,15,0,0,1,15,15V355A15,15,0,0,1,497,370Z" fill="#f79b00"/><path d="M497,0H256V370H497a15,15,0,0,0,15-15V15A15,15,0,0,0,497,0Z" fill="#f28300"/><path d="M512,15A15,15,0,0,0,497,0H15A15,15,0,0,0,0,15v7.78L247.35,197.26a15,15,0,0,0,17.3,0L512,22.78Z" fill="#fbb200"/><path d="M497,0H256V200a15,15,0,0,0,8.65-2.74L512,22.78V15A15,15,0,0,0,497,0Z" fill="#f79b00"/><polygon points="328.37 0 284.75 43.63 426.12 185 284.75 326.37 328.37 370 513.37 185 328.37 0" fill="#36c917"/></svg>