<svg id="aae6ed5f-2403-45c9-ae58-e2662224b529" xmlns="http://www.w3.org/2000/svg" viewBox="0 0 512 370"><title>carta-recibida</title><path d="M497,370H15A15,15,0,0,1,0,355V15A15,15,0,0,1,15,0H497a15,15,0,0,1,15,15V355A15,15,0,0,1,497,370Z" fill="#f79b00"/><path d="M497,0H256V370H497a15,15,0,0,0,15-15V15A15,15,0,0,0,497,0Z" fill="#f28300"/><path d="M512,15A15,15,0,0,0,497,0H15A15,15,0,0,0,0,15v7.78L247.35,197.26a15,15,0,0,0,17.3,0L512,22.78Z" fill="#fbb200"/><path d="M497,0H256V200a15,15,0,0,0,8.65-2.74L512,22.78V15A15,15,0,0,0,497,0Z" fill="#f79b00"/><polygon points="0 185 185 370 228.63 326.37 87.26 185 228.63 43.63 185 0 0 185" fill="#c63118"/></svg>