<svg id="eee0a809-7e3d-47a5-b469-fd092a456d82" data-name="Capa 1" xmlns="http://www.w3.org/2000/svg" viewBox="0 0 512 370"><title>carta</title><path d="M497,370H15A15,15,0,0,1,0,355V15A15,15,0,0,1,15,0H497a15,15,0,0,1,15,15V355A15,15,0,0,1,497,370Z" fill="#f79b00"/><path d="M497,0H256V370H497a15,15,0,0,0,15-15V15A15,15,0,0,0,497,0Z" fill="#f28300"/><path d="M512,15A15,15,0,0,0,497,0H15A15,15,0,0,0,0,15v7.78L247.35,197.26a15,15,0,0,0,17.3,0L512,22.78Z" fill="#fbb200"/><path d="M146.6,310H75a15,15,0,0,1,0-30h71.6a15,15,0,1,1,0,30Z" fill="#fffff2"/><path d="M497,0H256V200a15,15,0,0,0,8.65-2.74L512,22.78V15A15,15,0,0,0,497,0Z" fill="#f79b00"/></svg>