<svg id="ae98113b-2136-43e0-849d-c42b1bdff226" data-name="Capa 1" xmlns="http://www.w3.org/2000/svg" viewBox="0 0 512.43 449.48"><title>chat</title><path d="M256.43,0C115.28,0,.43,93.31.43,208a191.66,191.66,0,0,0,82.3,152.83,127.47,127.47,0,0,1-70.14,55.65A16,16,0,0,0,14.12,448a198.88,198.88,0,0,0,26.27,1.47,343.12,343.12,0,0,0,156-39.17,303.62,303.62,0,0,0,60.07,5.7c141.15,0,256-93.31,256-208S397.58,0,256.43,0Z" fill="#fff599"/><circle cx="256.43" cy="208" r="32" fill="#17171c"/><circle cx="112.43" cy="208" r="32" fill="#17171c"/><circle cx="400.43" cy="208" r="32" fill="#17171c"/><path d="M256.43,256a48,48,0,1,1,48-48A48,48,0,0,1,256.43,256Zm0-64a16,16,0,1,0,16,16A16,16,0,0,0,256.43,192Z" fill="none"/><path d="M112.43,256a48,48,0,1,1,48-48A48,48,0,0,1,112.43,256Zm0-64a16,16,0,1,0,16,16A16,16,0,0,0,112.43,192Z" fill="none"/><path d="M400.43,256a48,48,0,1,1,48-48A48,48,0,0,1,400.43,256Zm0-64a16,16,0,1,0,16,16A16,16,0,0,0,400.43,192Z" fill="none"/><path d="M40.4,449.31A197.21,197.21,0,0,1,14.12,448a16,16,0,0,1-1.53-31.36A127.47,127.47,0,0,0,82.73,361,191.62,191.62,0,0,1,.43,208C.43,93.31,115.28,0,256.43,0s256,93.31,256,208-114.85,208-256,208a303.63,303.63,0,0,1-60.07-5.86A343.11,343.11,0,0,1,40.4,449.31ZM256.43,32c-123.49,0-224,78.94-224,176A163.77,163.77,0,0,0,113.2,343.1a16,16,0,0,1,5,21.51A219.7,219.7,0,0,1,79.08,414.4a319.18,319.18,0,0,0,107.33-35.2,15.72,15.72,0,0,1,11.14-1.6,265.53,265.53,0,0,0,58.88,6.4c123.49,0,224-78.94,224-176S379.92,32,256.43,32Z" fill="#fff599"/></svg>