<svg id="a8439d5b-927e-43c9-bff6-5935a32e71f6" data-name="Layer 1" xmlns="http://www.w3.org/2000/svg" viewBox="0 0 512 390"><title>crown</title><path d="M91,300v90H421V300Z" fill="#ff9f00"/><path d="M256,300H421v90H256Z" fill="#ff7816"/><path d="M422.5,169.2l-24.3,47.4H113.8L89.5,169.2C125.2,119.7,187.3,90,256,90S386.8,119.7,422.5,169.2Z" fill="#ff4b00"/><path d="M422.5,169.2l-24.3,47.4H256V90C324.7,90,386.8,119.7,422.5,169.2Z" fill="#cc1e0d"/><path d="M477.1,139.2,421,330H91L34.9,139.2l37.8-14.4c17.1,32.7,49.8,51.9,76.5,55.2h15.6c34.5-5.4,60.3-58.2,70.8-108.6h40.8c10.5,50.4,36.3,103.2,70.8,108.6h15.6c26.7-3.3,59.4-22.5,76.5-55.2Z" fill="#fdbf00"/><path d="M477.1,139.2,421,330H256V71.4h20.4c10.5,50.4,36.3,103.2,70.8,108.6h15.6c26.7-3.3,59.4-22.5,76.5-55.2Z" fill="#ff9f00"/><path d="M46,150c-24.81,0-46-20.19-46-45S21.19,60,46,60a45,45,0,0,1,0,90Z" fill="#ff9f00"/><path d="M466,150a45,45,0,0,1,0-90c24.81,0,46,20.19,46,45S490.81,150,466,150Z" fill="#ff7816"/><path d="M256,0a45,45,0,1,0,45,45A44.94,44.94,0,0,0,256,0Z" fill="#ff9f00"/><path d="M256,173.7,204.7,225,256,276.3,307.3,225Z" fill="#ff4b00"/><path d="M346,233.79,367.21,255,346,276.21,324.79,255Z" fill="#cc1e0d"/><path d="M166,233.79,187.21,255,166,276.21,144.79,255Z" fill="#ff4b00"/><path d="M256,90V0a45,45,0,0,1,0,90Z" fill="#ff7816"/><path d="M307.3,225,256,276.3V173.7Z" fill="#cc1e0d"/></svg>