<svg xmlns="http://www.w3.org/2000/svg" viewBox=" 0 0 464.056 464.056">
 <g>
  <title>Layer 1</title>
  <path d="m313.028,447.056l-24,0c-4.418,0 -8,-3.582 -8,-8s3.582,-8 8,-8l24,0c4.418,0 8,3.582 8,8s-3.581,8 -8,8z" fill="#fff" id="svg_5"/>
  <g id="Layer"/>
  <g id="Layer"/>
  <g id="Layer"/>
  <g id="Layer"/>
  <g id="Layer"/>
  <g id="Layer"/>
  <g id="Layer"/>
  <g id="Layer"/>
  <g id="Layer"/>
  <g id="Layer"/>
  <g id="Layer"/>
  <g id="Layer"/>
  <g id="Layer"/>
  <g id="Layer"/>
  <g id="Layer"/>
  <g >
   <title >diamond</title>
   <g >
    <g  data-name="Layer 1" id="svg_9">
     <path  fill="#fff" d="m227.3872,440.10228a17.61196,17.61196 0 0 0 19.56168,-5.55913l206.25166,-256.20323a17.1769,17.1769 0 0 0 4.99516,-4.22171l0.41895,-0.53174a17.5475,17.5475 0 0 0 3.89945,-12.05283a17.5475,17.5475 0 0 0 -5.75249,-14.01867l-118.65916,-107.62147a17.57973,17.57973 0 0 0 -11.87558,-4.57621l-186.02933,0a17.57973,17.57973 0 0 0 -11.82724,4.57621l-118.64304,107.66981a17.59584,17.59584 0 0 0 -5.7686,14.01867a16.83851,16.83851 0 0 0 0,2.20754a17.57973,17.57973 0 0 0 8.87849,14.08312l206.47724,256.39659a17.62807,17.62807 0 0 0 8.07282,5.83305z"/>
     <polygon  fill="#4098f4" points="294.08056640625,181.41757202148438 175.58258056640625,181.41757202148438 172.34378051757812,180.98251342773438 21.57060432434082,160.59906005859375 219.21771240234375,406.10302734375 233.2202606201172,423.4893493652344 233.2363739013672,423.4893493652344 233.2363739013672,423.5055236816406 247.23892211914062,406.10302734375 444.4831848144531,161.1146697998047 294.08056640625,181.41757202148438 "/>
     <polygon  fill="#1399f4" points="326.2752380371094,52.92924880981445 293.79058837890625,52.92924880981445 172.68215942382812,52.92924880981445 140.19754028320312,52.92924880981445 21.57060432434082,160.59906005859375 175.58258056640625,181.41757202148438 294.08056640625,181.41757202148438 444.4831848144531,161.1146697998047 444.902099609375,160.59906005859375 326.2752380371094,52.92924880981445 "/>
     <polygon  fill="#4098f4" points="101.26753997802734,171.37892150878906 21.57060432434082,160.59906005859375 219.21771240234375,406.10302734375 233.2202606201172,423.4893493652344 233.2202606201172,423.4732666015625 101.26753997802734,171.37892150878906 "/>
     <path  fill="#1582ad" d="m247.27115,406.10298l197.24426,-244.92384l-150.40257,20.3029l0,0c-24.84688,99.21027 -55.83297,222.70345 -60.86035,242.05565l0,0l14.01867,-17.43471z"/>
     <path  fill="#4098f4" d="m247.27115,406.10298l197.24426,-244.92384l-69.60993,9.32966s-136.65784,233.64445 -141.68522,252.98055l0,0l14.05089,-17.38637z"/>
     <polygon  fill="#50a3f3" points="233.2202606201172,423.4893493652344 233.2363739013672,423.4893493652344 233.2202606201172,423.4732666015625 233.2202606201172,423.4893493652344 "/>
     <path  fill="#50a3f3" d="m233.22025,423.47324s-60.87647,-242.49072 -60.87647,-242.49072l-16.91908,145.84248l77.79555,96.64824z"/>
     <polygon  fill="#3f81c0" points="233.2202606201172,423.4732666015625 294.08056640625,181.41757202148438 313.722900390625,323.537841796875 233.2202606201172,423.4732666015625 "/>
     <polygon  fill="#1399f4" points="21.57060432434082,160.59906005859375 232.2695770263672,232.51319885253906 444.4831848144531,161.1146697998047 294.08056640625,181.41757202148438 172.34378051757812,180.98251342773438 21.57060432434082,160.59906005859375 "/>
     <polygon  fill="#1078c0" points="307.4708557128906,126.7770004272461 293.79058837890625,54.895084381103516 172.68215942382812,54.895084381103516 154.0228271484375,125.40737915039062 21.57060432434082,162.5648956298828 175.58258056640625,183.39956665039062 294.08056640625,183.39956665039062 444.4831848144531,163.08051300048828 444.902099609375,162.5648956298828 307.4708557128906,126.7770004272461 "/>
     <polygon  fill="#747bfc" points="142.9368133544922,56.86092758178711 172.34378051757812,180.98251342773438 294.08056640625,181.41757202148438 321.6023254394531,56.86092758178711 142.9368133544922,56.86092758178711 "/>
     <polygon  fill="#4098f4" points="140.19754028320312,52.92924880981445 101.26753997802734,171.37892150878906 227.32273864746094,56.86092758178711 353.37799072265625,171.37892150878906 326.2752380371094,52.92924880981445 140.19754028320312,52.92924880981445 "/>
     <polygon  fill="#4098f4" points="140.19754028320312,52.92924880981445 170.07180786132812,171.39503479003906 227.32273864746094,56.86092758178711 286.57171630859375,171.37892150878906 326.2752380371094,52.92924880981445 140.19754028320312,52.92924880981445 "/>
     <polygon  fill="#f7f7f7" points="303.2007751464844,180.19296264648438 440.084228515625,161.71087646484375 304.3770751953125,171.20167541503906 315.720947265625,83.49637603759766 288.6664733886719,180.98251342773438 288.6664733886719,180.98251342773438 170.07180786132812,171.39503479003906 142.9368133544922,56.86092758178711 161.9989776611328,171.37892150878906 21.57060432434082,160.59906005859375 160.5971221923828,184.22134399414062 233.2202606201172,423.4732666015625 173.6489715576172,185.70376586914062 288.53759765625,181.62705993652344 258.437744140625,323.537841796875 303.2007751464844,180.19296264648438 "/>
     <path  fill="#a6c3f7" d="m28.57994,160.59906l109.32949,-100.70882s-33.80594,59.21678 -109.32949,100.70882z"/>
     <path  fill="#a6c3f7" d="m440.08422,160.59906l-109.32949,-100.70882s33.80594,59.21678 109.32949,100.70882z"/>
    </g>
   </g>
  </g>
  <path id="svg_8"  d="m377.078,231.35803c-52.06345,0 -94.4,42.26657 -94.4,94.4s42.19659,94.46998 94.4,94.46998s94.4,-42.26657 94.4,-94.4s-42.26657,-94.46998 -94.4,-94.46998zm55.14248,98.24878c0,2.16931 -1.74944,3.91875 -3.91875,3.91875l-43.31623,0l0,43.24626c0,2.16931 -1.74944,3.91875 -3.91875,3.91875l-7.90749,0c-2.16931,0 -3.91875,-1.74944 -3.91875,-3.91875l0,-43.24626l-43.24626,0c-2.16931,0 -3.91875,-1.74944 -3.91875,-3.91875l0,-7.90749c0,-2.16931 1.74944,-3.91875 3.91875,-3.91875l43.24626,0l0,-43.24626c0,-2.16931 1.74944,-3.91875 3.91875,-3.91875l7.90749,0c2.16931,0 3.91875,1.74944 3.91875,3.91875l0,43.24626l43.17628,0c2.16931,0 3.91875,1.74944 3.91875,3.91875l0,7.90749l0.13996,0l-0.00001,0z" fill="#0bc40b" />
 </g>

</svg>