<svg xmlns="http://www.w3.org/2000/svg" viewBox="0 0 284.58 251.83"><title>diamond</title><g style="isolation:isolate"><g id="Layer_1" data-name="Layer 1"><path d="M138.66,251.21a10.93,10.93,0,0,0,12.14-3.45l128-159a10.66,10.66,0,0,0,3.1-2.62l.26-.33a10.89,10.89,0,0,0,2.42-7.48,10.89,10.89,0,0,0-3.57-8.7L207.37,2.84A10.91,10.91,0,0,0,200,0H84.55a10.91,10.91,0,0,0-7.34,2.84L3.58,69.66A10.92,10.92,0,0,0,0,78.36a10.45,10.45,0,0,0,0,1.37,10.91,10.91,0,0,0,5.51,8.74L133.65,247.59A10.94,10.94,0,0,0,138.66,251.21Z" fill="#fff"/><polygon points="180.05 90.67 106.51 90.67 104.5 90.4 10.93 77.75 133.59 230.11 142.28 240.9 142.29 240.9 142.29 240.91 150.98 230.11 273.39 78.07 180.05 90.67" fill="#4098f4"/><polygon points="200.03 10.93 179.87 10.93 104.71 10.93 84.55 10.93 10.93 77.75 106.51 90.67 180.05 90.67 273.39 78.07 273.65 77.75 200.03 10.93" fill="#1399f4"/><polygon points="60.39 84.44 10.93 77.75 133.59 230.11 142.28 240.9 142.28 240.89 60.39 84.44" fill="#4098f4" style="mix-blend-mode:screen"/><path d="M151,230.11l122.41-152-93.34,12.6h0c-15.42,61.57-34.65,138.21-37.77,150.22h0Z" fill="#1582ad" style="mix-blend-mode:multiply"/><path d="M151,230.11l122.41-152L230.21,83.9s-84.81,145-87.93,157h0Z" fill="#4098f4" style="mix-blend-mode:screen"/><polygon points="142.28 240.9 142.29 240.9 142.28 240.89 142.28 240.9" fill="#50a3f3"/><path d="M142.28,240.89S104.5,90.4,104.5,90.4L94,180.91Z" fill="#50a3f3" style="mix-blend-mode:multiply"/><polygon points="142.28 240.89 180.05 90.67 192.24 178.87 142.28 240.89" fill="#3f81c0" style="mix-blend-mode:multiply"/><polygon points="10.93 77.75 141.69 122.38 273.39 78.07 180.05 90.67 104.5 90.4 10.93 77.75" fill="#1399f4" style="mix-blend-mode:multiply"/><polygon points="188.36 56.76 179.87 12.15 104.71 12.15 93.13 55.91 10.93 78.97 106.51 91.9 180.05 91.9 273.39 79.29 273.65 78.97 188.36 56.76" fill="#1078c0" style="mix-blend-mode:multiply"/><polygon points="86.25 13.37 104.5 90.4 180.05 90.67 197.13 13.37 86.25 13.37" fill="#747bfc" style="mix-blend-mode:color-dodge"/><polygon points="84.55 10.93 60.39 84.44 138.62 13.37 216.85 84.44 200.03 10.93 84.55 10.93" fill="#4098f4" style="mix-blend-mode:screen"/><polygon points="84.55 10.93 103.09 84.45 138.62 13.37 175.39 84.44 200.03 10.93 84.55 10.93" fill="#4098f4" style="mix-blend-mode:multiply"/><polygon points="185.71 89.91 270.66 78.44 186.44 84.33 193.48 29.9 176.69 90.4 176.69 90.4 103.09 84.45 86.25 13.37 98.08 84.44 10.93 77.75 97.21 92.41 142.28 240.89 105.31 93.33 176.61 90.8 157.93 178.87 185.71 89.91" fill="#f7f7f7"/><path d="M15.28,77.75l67.85-62.5S62.15,52,15.28,77.75Z" fill="#a6c3f7" style="mix-blend-mode:color-dodge"/><path d="M270.66,77.75l-67.85-62.5S223.79,52,270.66,77.75Z" fill="#a6c3f7" style="mix-blend-mode:color-dodge"/></g></g></svg>