<svg xmlns="http://www.w3.org/2000/svg" width="199.67mm" height="221.94mm" viewBox="0 0 566 629.11"><title>eliminar-multa</title><path d="M256,117.11c-141.38,0-256,114.62-256,256s114.62,256,256,256,256-114.62,256-256S397.38,117.11,256,117.11Zm-211.86,256c0-116.82,95-211.86,211.86-211.86a210.8,210.8,0,0,1,135.72,49.34L93.48,508.83A210.82,210.82,0,0,1,44.14,373.11ZM256,585a210.72,210.72,0,0,1-130.82-45.41L422.45,242.28a210.77,210.77,0,0,1,45.41,130.83C467.86,489.93,372.82,585,256,585Z" fill="#dd352e"/><rect x="266.32" y="69.03" width="275.05" height="22.42" fill="#ccc"/><rect x="371.66" y="23.27" width="64.46" height="22.49" fill="#ccc"/><rect x="293.86" y="114.64" width="224.09" height="259.22" fill="#ccc"/><path d="M404,361.45a11.61,11.61,0,0,0,11.63-11.63V140.08a11.64,11.64,0,0,0-23.27,0V349.82A11.62,11.62,0,0,0,404,361.45Z" fill="#757575"/><path d="M335.2,350.44a11.65,11.65,0,0,0,11.63,11h.62a11.64,11.64,0,0,0,11-12.25L347,139.46a11.65,11.65,0,0,0-23.27,1.24Z" fill="#757575"/><path d="M460.78,361.45h.62a11.65,11.65,0,0,0,11.63-11L484,140.7a11.65,11.65,0,0,0-23.27-1.24L449.76,349.2A11.68,11.68,0,0,0,460.78,361.45Z" fill="#757575"/><path d="M565,88.73l-8.76-26.29A24.46,24.46,0,0,0,533,45.76H459.3v-24A21.73,21.73,0,0,0,437.59,0H370.1a21.73,21.73,0,0,0-21.71,21.72v24H274.7a24.42,24.42,0,0,0-23.19,16.76l-8.77,26.29a19.68,19.68,0,0,0,18.7,25.91h9.15l20.16,249.45a36.09,36.09,0,0,0,35.76,33H485.44a36.08,36.08,0,0,0,35.76-33l20.17-249.45h5a19.83,19.83,0,0,0,16-8.15A20.48,20.48,0,0,0,565,88.73ZM371.66,23.27h64.45V45.76H371.66Zm126.27,339a12.71,12.71,0,0,1-12.56,11.63H326.43a12.71,12.71,0,0,1-12.56-11.63l-20-247.59H517.94ZM266.32,91.37l7.22-21.56A1.24,1.24,0,0,1,274.7,69H533.07a1.16,1.16,0,0,1,1.16.85l7.21,21.56Z" fill="#757575"/></svg>