<svg id="b4a22bbc-cdd2-437b-b229-3a26676ab455" data-name="Capa 1" xmlns="http://www.w3.org/2000/svg" viewBox="0 0 735.26 370"><title>email-arrow</title><path d="M497,370H15A15,15,0,0,1,0,355V15A15,15,0,0,1,15,0H497a15,15,0,0,1,15,15V355A15,15,0,0,1,497,370Z" fill="#f79b00"/><path d="M497,0H256V370H497a15,15,0,0,0,15-15V15A15,15,0,0,0,497,0Z" fill="#f28300"/><path d="M512,15A15,15,0,0,0,497,0H15A15,15,0,0,0,0,15v7.78L247.35,197.26a15,15,0,0,0,17.3,0L512,22.78Z" fill="#fbb200"/><path d="M146.6,310H75a15,15,0,0,1,0-30h71.6a15,15,0,1,1,0,30Z" fill="#fffff2"/><path d="M497,0H256V200a15,15,0,0,0,8.65-2.74L512,22.78V15A15,15,0,0,0,497,0Z" fill="#f79b00"/><polygon points="630.99 85.73 606.4 110.32 686.08 190 606.4 269.68 630.99 294.27 735.26 190 630.99 85.73" fill="#fff"/></svg>