<svg id="aae6ed5f-2403-45c9-ae58-e2662224b529" data-name="a3b63f27-b268-442f-b305-5e7eb4a47c3e" xmlns="http://www.w3.org/2000/svg" viewBox="0 0 859.14 370">
  <path d="M844.14,370h-482a15,15,0,0,1-15-15V15a15,15,0,0,1,15-15h482a15,15,0,0,1,15,15V355A15,15,0,0,1,844.14,370Z" fill="#f79b00" />
  <path d="M844.14,0h-241V370h241a15,15,0,0,0,15-15V15A15,15,0,0,0,844.14,0Z" fill="#f28300" />
  <path d="M859.14,15a15,15,0,0,0-15-15h-482a15,15,0,0,0-15,15v7.78L594.49,197.26a15,15,0,0,0,17.3,0L859.14,22.78Z" fill="#fbb200" />
  <path d="M493.74,310h-71.6a15,15,0,0,1,0-30h71.6a15,15,0,0,1,0,30Z" fill="#fffff2" />
  <path d="M844.14,0h-241V200a15,15,0,0,0,8.65-2.74L859.14,22.78V15A15,15,0,0,0,844.14,0Z" fill="#f79b00" />
  <polygon points="0 185 185 370 228.63 326.37 87.26 185 228.63 43.63 185 0 0 185" fill="#c63118" />
</svg>