<svg id="a9c8fbc4-b630-4f52-8a3c-832fad91bdd7" data-name="Layer 1" xmlns="http://www.w3.org/2000/svg" viewBox="0 0 512 512"><title>expand</title><path d="M16,170.67a16,16,0,0,1-16-16v-96A58.71,58.71,0,0,1,58.67,0h96a16,16,0,0,1,0,32h-96A26.71,26.71,0,0,0,32,58.67v96A16,16,0,0,1,16,170.67Z" fill="#17171c"/><path d="M453.33,512h-96a16,16,0,1,1,0-32h96A26.71,26.71,0,0,0,480,453.33v-96a16,16,0,1,1,32,0v96A58.71,58.71,0,0,1,453.33,512Z" fill="#17171c"/><path d="M154.67,512h-96A58.71,58.71,0,0,1,0,453.33v-96a16,16,0,0,1,32,0v96A26.71,26.71,0,0,0,58.67,480h96a16,16,0,0,1,0,32Z" fill="#17171c"/><path d="M496,170.67a16,16,0,0,1-16-16v-96A26.71,26.71,0,0,0,453.33,32h-96a16,16,0,0,1,0-32h96A58.71,58.71,0,0,1,512,58.67v96A16,16,0,0,1,496,170.67Z" fill="#17171c"/><path d="M368,426.67H144A58.72,58.72,0,0,1,85.33,368V144A58.72,58.72,0,0,1,144,85.33H368A58.72,58.72,0,0,1,426.67,144V368A58.72,58.72,0,0,1,368,426.67ZM144,117.33A26.71,26.71,0,0,0,117.33,144V368A26.71,26.71,0,0,0,144,394.67H368A26.71,26.71,0,0,0,394.67,368V144A26.71,26.71,0,0,0,368,117.33Z" fill="#17171c"/></svg>