<svg id="e06b608b-fa65-4a95-8490-47e5b776ab44" data-name="Capa 1" xmlns="http://www.w3.org/2000/svg" viewBox="0 0 334.34 390">
  <path d="M334.24,63c.1-.3-.1-.6-.1-.9V10a9.71,9.71,0,0,0-9.4-10H9.74A9.62,9.62,0,0,0,.14,9.7V62.1c0,.3-.2.6-.1.9,0,.1-.1.3,0,.4v.5a.9.9,0,0,0,.1.5.76.76,0,0,1,.1.4,4.33,4.33,0,0,1,.1.5c0,.1.1.3.1.4s.1.3.2.5.1.3.2.4.1.3.2.4a.76.76,0,0,1,.2.4c0,.1.2.3.2.4s.2.3.3.4.2.2.2.3a.49.49,0,0,1,.3.1l119.9,141V380a9.68,9.68,0,0,0,5.5,9,10,10,0,0,0,4.2,1,9.77,9.77,0,0,0,6.2-2.2l70.6-57.3a9.72,9.72,0,0,0,3.5-7.8V209.6l119.8-141a.31.31,0,0,0,.2-.1l.3-.3c.1-.1.2-.3.3-.4s.2-.3.3-.4a.76.76,0,0,0,.2-.4.76.76,0,0,0,.2-.4c.1-.1.1-.3.2-.4s.1-.3.2-.5a.6.6,0,0,0,.1-.4.9.9,0,0,0,.1-.5c0-.2.1-.3.1-.4a4.33,4.33,0,0,0,.1-.5,4.33,4.33,0,0,1,.1-.5C334.34,63.3,334.14,63.1,334.24,63ZM194.74,199.4a10.42,10.42,0,0,0-2.6,6.5v112l-50,41.1V205.9a10.42,10.42,0,0,0-2.6-6.5L31.34,72h271.6ZM314.14,52h-294V20h294Z" />
</svg>