<svg id="aeede588-8a69-43a6-9fd5-5c2d7117cbcb" data-name="Capa 1" xmlns="http://www.w3.org/2000/svg" viewBox="0 0 468.29 365.85">
  <path d="M449.56,336.59H48a18.73,18.73,0,0,1-18.73-18.74V18.73A18.73,18.73,0,0,1,48,0H449.56a18.73,18.73,0,0,1,18.73,18.73V317.85A18.73,18.73,0,0,1,449.56,336.59Z" fill="#d5d6db" />
  <path d="M420.29,365.85H18.73A18.73,18.73,0,0,1,0,347.12V48A18.74,18.74,0,0,1,18.73,29.27H420.29A18.73,18.73,0,0,1,439,48V347.12A18.72,18.72,0,0,1,420.29,365.85Z" fill="#e1e6e9" />
  <path d="M0,250.67,103.66,117.75a7.32,7.32,0,0,1,11.53,0L219.51,250.67l91.56-87.16a7.32,7.32,0,0,1,10.46.38l65.28,72L439,174.8V343.9a22,22,0,0,1-21.95,22H22A22,22,0,0,1,0,343.9Z" fill="#44c4a1" />
  <circle cx="231.71" cy="106.42" r="43.71" fill="#fcd462" />
</svg>