<?xml version="1.0" encoding="iso-8859-1"?>
<!-- Generator: Adobe Illustrator 21.0.0, SVG Export Plug-In . SVG Version: 6.00 Build 0)  -->
<svg xmlns="http://www.w3.org/2000/svg" xmlns:xlink="http://www.w3.org/1999/xlink" version="1.1" id="Capa_1" x="0px" y="0px" viewBox="0 0 512 512" style="enable-background:new 0 0 512 512;" xml:space="preserve" width="512" height="512">
<g>
	<g>
		<g>
			<g>
				<g>
					<g>
						<g>
							<g>
								<g>
									<g>
										<circle style="fill:#495F7A;" cx="256" cy="256" r="256"/>
									</g>
								</g>
							</g>
						</g>
					</g>
				</g>
			</g>
		</g>
	</g>
	<path style="fill:#385068;" d="M512,256c0-13.42-1.038-26.597-3.028-39.459L417.5,125.069l-323,261.862l122.041,122.041   C229.403,510.962,242.58,512,256,512C397.385,512,512,397.385,512,256z"/>
	<g>
		<g>
			<rect x="109.5" y="140.069" style="fill:#FFFFFF;" width="293" height="231.862"/>
		</g>
		<g>
			<rect x="255.629" y="140.069" style="fill:#F7F7F7;" width="146.871" height="231.862"/>
		</g>
		<g>
			<path style="fill:#F0F0F0;" d="M387.5,155.069v201.862h-263V155.069H387.5 M417.5,125.069h-30h-263h-30v30v201.862v30h30h263h30     v-30V155.069V125.069L417.5,125.069z"/>
		</g>
		<g>
			<polygon style="fill:#E4E4E4;" points="387.5,125.069 255.629,125.069 255.629,155.069 387.5,155.069 387.5,356.931      255.629,356.931 255.629,386.931 387.5,386.931 417.5,386.931 417.5,356.931 417.5,155.069 417.5,125.069    "/>
		</g>
	</g>
	<g>
		<circle style="fill:#FFCE00;" cx="331.369" cy="213.836" r="34.522"/>
	</g>
	<g>
		<path style="fill:#FFB000;" d="M331.369,179.314c-0.097,0-0.193,0.007-0.291,0.007v69.029c0.097,0.001,0.193,0.007,0.291,0.007    c19.066,0,34.522-15.456,34.522-34.522C365.891,194.77,350.435,179.314,331.369,179.314z"/>
	</g>
	<g>
		<polygon style="fill:#FF583E;" points="387.5,306.334 270.494,232.546 213.572,279.454 124.5,220.951 124.5,356.931     387.5,356.931   "/>
	</g>
	<g>
		<polygon style="fill:#F92814;" points="387.5,306.334 270.494,232.546 255.629,244.796 255.629,356.931 387.5,356.931   "/>
	</g>
</g>















</svg>
