<?xml version="1.0"?>
<svg xmlns="http://www.w3.org/2000/svg" enable-background="new 0 0 24 24" height="512px" viewBox="0 0 24 24" width="512px"><path d="m22.5 12h-21c-.827 0-1.5-.673-1.5-1.5v-4c0-.827.673-1.5 1.5-1.5h21c.827 0 1.5.673 1.5 1.5v4c0 .827-.673 1.5-1.5 1.5zm-21-6c-.275 0-.5.224-.5.5v4c0 .276.225.5.5.5h21c.275 0 .5-.224.5-.5v-4c0-.276-.225-.5-.5-.5z" fill="#4C4C3F"/><path d="m19.5 24h-15c-1.379 0-2.5-1.122-2.5-2.5v-10c0-.276.224-.5.5-.5s.5.224.5.5v10c0 .827.673 1.5 1.5 1.5h15c.827 0 1.5-.673 1.5-1.5v-10c0-.276.224-.5.5-.5s.5.224.5.5v10c0 1.378-1.121 2.5-2.5 2.5z" fill="#4C4C3F"/><path d="m12 24c-.276 0-.5-.224-.5-.5v-12c0-.276.224-.5.5-.5s.5.224.5.5v12c0 .276-.224.5-.5.5z" fill="#4C4C3F"/><path d="m12 6c-.036 0-.072-.004-.108-.012-.63-.14-3.817-.879-4.659-1.721-.473-.471-.733-1.099-.733-1.767s.26-1.296.732-1.768c.975-.975 2.561-.975 3.535 0 .842.841 1.581 4.029 1.721 4.66.037.167-.014.341-.135.461-.094.095-.222.147-.353.147zm-3-4.999c-.384 0-.769.146-1.061.438-.283.284-.439.66-.439 1.061s.156.777.439 1.061c.389.389 2.015.914 3.385 1.264-.351-1.37-.875-2.996-1.264-3.385-.291-.293-.676-.439-1.06-.439z" fill="#4C4C3F"/><path d="m12 6c-.131 0-.259-.052-.354-.146-.121-.121-.172-.295-.135-.461.14-.631.879-3.818 1.721-4.66.975-.976 2.561-.974 3.535 0 .473.471.733 1.099.733 1.767s-.26 1.296-.732 1.768c-.842.842-4.029 1.581-4.659 1.721-.037.007-.073.011-.109.011zm3-4.999c-.384 0-.769.146-1.061.438-.389.389-.913 2.015-1.264 3.385 1.37-.35 2.996-.875 3.385-1.264.284-.283.44-.659.44-1.06s-.156-.777-.439-1.061c-.292-.292-.677-.438-1.061-.438zm-1.414.085h.01z" fill="#4C4C3F"/></svg>
