<svg id="Layer_1" enable-background="new 0 0 512 512" height="512" viewBox="0 0 512 512" width="512" xmlns="http://www.w3.org/2000/svg"><g><g><path d="m352 112c0-8.837-7.163-16-16-16h96c8.837 0 16 7.163 16 16v368c0 8.837-7.163 16-16 16h-96c8.837 0 16-7.163 16-16z" fill="#463c4b"/></g><g><path d="m336 96h-256c-8.837 0-16 7.163-16 16v368c0 8.837 7.163 16 16 16h256c8.837 0 16-7.163 16-16v-368c0-8.837-7.163-16-16-16z" fill="#555a6e"/></g><g><path d="m176 96h64v400h-64z" fill="#ff6e91"/></g><g><circle cx="136" cy="144" fill="#32283c" r="24"/></g><g><circle cx="280" cy="144" fill="#32283c" r="24"/></g><g><path d="m208 264.485c-44.38 0-80.485-36.106-80.485-80.485v-40c0-4.686 3.799-8.485 8.485-8.485s8.485 3.799 8.485 8.485v40c0 35.022 28.492 63.515 63.515 63.515s63.515-28.492 63.515-63.515v-40c0-4.686 3.799-8.485 8.485-8.485s8.485 3.799 8.485 8.485v40c0 44.38-36.105 80.485-80.485 80.485z" fill="#d7e6f0"/></g><g fill="#e64178"><path d="m208 16h-48c-4.418 0-8 3.582-8 8s3.582 8 8 8c30.879 0 56 25.122 56 56 0 2.122.843 4.156 2.343 5.657 1.501 1.5 3.535 2.343 5.657 2.343h48c4.418 0 8-3.582 8-8 0-39.701-32.299-72-72-72z"/><path d="m336 16h-48c-39.701 0-72 32.299-72 72 0 2.122.843 4.156 2.343 5.657 1.501 1.5 3.535 2.343 5.657 2.343h48c4.418 0 8-3.582 8-8 0-30.878 25.121-56 56-56 4.418 0 8-3.582 8-8s-3.582-8-8-8z"/><path d="m360 16h-48c-4.418 0-8 3.582-8 8s3.582 8 8 8c13.233 0 24 10.766 24 24s-10.767 24-24 24c-4.418 0-8 3.582-8 8s3.582 8 8 8h48c22.056 0 40-17.944 40-40s-17.944-40-40-40z"/><path d="m184 80c-13.233 0-24-10.766-24-24s10.767-24 24-24c4.418 0 8-3.582 8-8s-3.582-8-8-8h-48c-22.056 0-40 17.944-40 40s17.944 40 40 40h48c4.418 0 8-3.582 8-8s-3.582-8-8-8z"/></g><g><path d="m312 96h-96v-8c0-39.701 32.299-72 72-72h24c22.056 0 40 17.944 40 40s-17.944 40-40 40zm-79.431-16h79.431c13.233 0 24-10.766 24-24s-10.767-24-24-24h-24c-28.163 0-51.536 20.897-55.431 48z" fill="#ff6e91"/></g><g><path d="m232 96h-96c-22.056 0-40-17.944-40-40s17.944-40 40-40h24c39.701 0 72 32.299 72 72zm-96-64c-13.233 0-24 10.766-24 24s10.767 24 24 24h79.431c-3.895-27.103-27.268-48-55.431-48z" fill="#ff6e91"/></g></g></svg>