<?xml version="1.0" encoding="utf-8"?>
<!-- Generator: Adobe Illustrator 23.0.3, SVG Export Plug-In . SVG Version: 6.00 Build 0)  -->
<svg version="1.1" id="a7ef70c0-43d9-4f08-b87e-a0d303eb7fbe" xmlns="http://www.w3.org/2000/svg" xmlns:xlink="http://www.w3.org/1999/xlink" x="0px" y="0px" viewBox="0 0 464 424" enable-background="new 0 0 464 424" xml:space="preserve">
  <path fill="#00B939" d="M340,0c-44.8,0-86.1,24.2-108,63.2C210.1,24.2,168.8,0,124,0C55.5,0,0,63.5,0,132c0,172,232,292,232,292
	s232-120,232-292C464,63.5,408.5,0,340,0z" />
  <path fill="#00E72D" d="M32,132C32,68.6,79.6,9.6,140.9,1.1C135.3,0.4,129.6,0,124,0C55.5,0,0,63.5,0,132c0,172,232,292,232,292
	s6-3.1,16-9C195.6,384.2,32,276.5,32,132z" />
</svg>
