<svg id="a7ef70c0-43d9-4f08-b87e-a0d303eb7fbe" data-name="Layer 1" xmlns="http://www.w3.org/2000/svg" viewBox="0 0 464 424"><title>heart</title><path d="M340,0A123.88,123.88,0,0,0,232,63.2,123.88,123.88,0,0,0,124,0C55.52,0,0,63.52,0,132,0,304,232,424,232,424S464,304,464,132C464,63.52,408.48,0,340,0Z" fill="#ff6243"/><path d="M32,132C32,68.64,79.55,9.64,140.89,1.15A123.84,123.84,0,0,0,124,0C55.52,0,0,63.52,0,132,0,304,232,424,232,424s6-3.11,16-9C195.59,384.18,32,276.45,32,132Z" fill="#ff5023"/></svg>