<svg id="b78cf162-775b-4f14-9119-106f94b703d4" data-name="Layer 1" xmlns="http://www.w3.org/2000/svg" viewBox="0 0 448.26 512"><title>liberar</title><path d="M295.27,206a152.9,152.9,0,0,0-40.22,5.37V123.23C255.05,55.28,197.84,0,127.53,0S0,55.28,0,123.23v170.1H87V125.4c0-20,18.18-36.22,40.53-36.22s40.54,16.25,40.54,36.22V274.08A152.13,152.13,0,0,0,142.26,359c0,84.36,68.64,153,153,153s153-68.64,153-153S379.63,206,295.27,206ZM127.53,59.18C88.63,59.18,57,88.89,57,125.4V263.33H30V123.23C30,71.82,73.75,30,127.52,30s97.53,41.82,97.53,93.23v99.86a153.68,153.68,0,0,0-27,17.84V125.4C198.06,88.89,166.42,59.18,127.53,59.18ZM295.27,482a123,123,0,1,1,123-123A123.14,123.14,0,0,1,295.27,482Z" fill="#4c4c3f"/><path d="M344.16,334.45A48.9,48.9,0,1,0,255.58,363l-5.24,60h89.85L335,363A48.53,48.53,0,0,0,344.16,334.45Zm-35.4,13.22-4.82,4.92L307.46,393H283.07l3.53-40.41-4.83-4.93a18.89,18.89,0,1,1,27,0Z" fill="#4c4c3f"/></svg>