<svg id="e224de08-ae87-4ed8-93c9-5c3d507d4ff2" data-name="Capa 1" xmlns="http://www.w3.org/2000/svg" viewBox="0 0 512 512"><title>logout</title><path d="M455.11,0H56.89A56.88,56.88,0,0,0,0,56.89V170.67H56.89V56.89H455.11V455.11H56.89V341.33H0V455.11A56.88,56.88,0,0,0,56.89,512H455.11A56.88,56.88,0,0,0,512,455.11V56.89A56.88,56.88,0,0,0,455.11,0Z" fill="#fff"/><polygon points="201.53 357.97 241.78 398.22 384 256 241.78 113.78 201.53 154.03 275.06 227.56 0 227.56 0 284.44 275.06 284.44 201.53 357.97" fill="#fff"/></svg>