<?xml version="1.0" encoding="utf-8"?>
<svg viewBox="0 0 464.056 464.056" xmlns="http://www.w3.org/2000/svg" xmlns:xlink="http://www.w3.org/1999/xlink">
<g>
  <title>Layer 1</title>
  <path id="svg_1" fill="#ffdfba" d="m386.028,416.796l0,39.26c0,4.42 -3.58,8 -8,8l-292,0c-4.42,0 -8,-3.58 -8,-8l0,-39.26c0,-41.19 33.39,-74.56 74.59,-74.57c14.56,-0.01 27.38,-7.5 34.76,-18.86c7.414,-11.394 6.65,-21.302 6.65,-29.31l0.15,-0.37c-35.9,-14.86 -61.15,-50.23 -61.15,-91.5l0,-3.13c-14.255,0 -25,-11.265 -25,-24.54l0,-41.56c-0.32,-14.47 0.34,-65.5 37.2,-101.03c42.86,-41.31 110.78,-37.93 159.98,-15.83c1.6,0.72 1.55,3.01 -0.07,3.68l-12.83,5.28c-1.92,0.79 -1.51,3.62 0.55,3.84l6.23,0.67c29.83,3.19 57.54,19.39 74.72,46.35c0.46,0.73 0.33,1.84 -0.26,2.47c-10.6,11.21 -16.52,26.09 -16.52,41.56l0,54.57c0,13.55 -10.99,24.54 -24.54,24.54l-1.46,0l0,3.13c0,41.27 -25.25,76.64 -61.15,91.5l0.15,0.37c0,7.777 -0.827,17.82 6.65,29.31c7.38,11.36 20.2,18.85 34.76,18.86c41.2,0.01 74.59,33.38 74.59,74.57z"/>
  <path id="svg_2" fill="#fe4f60" d="m386.028,416.796l0,39.26c0,4.418 -3.582,8 -8,8l-292,0c-4.418,0 -8,-3.582 -8,-8l0,-39.26c0,-41.19 33.395,-74.555 74.585,-74.57c14.564,-0.005 27.387,-7.504 34.765,-18.86c25.754,22.002 63.531,22.015 89.3,0c7.377,11.356 20.201,18.855 34.765,18.86c41.19,0.015 74.585,33.38 74.585,74.57z"/>
  <path id="svg_3" fill="#42434d" d="m373.804,75.921c0.464,0.729 0.334,1.833 -0.259,2.461c-10.597,11.218 -16.517,26.093 -16.517,41.564l0,54.57c0,12.388 -9.333,24.54 -26,24.54l0,-61.77c0,-26.51 -21.49,-48 -48,-48l-102,0c-26.51,0 -48,21.49 -48,48l0,61.77c-14.255,0 -25,-11.265 -25,-24.54l0,-41.56c-0.32,-14.47 0.34,-65.5 37.2,-101.03c42.857,-41.311 110.784,-37.929 159.976,-15.827c1.6,0.719 1.558,3.01 -0.065,3.678l-12.831,5.282c-1.918,0.79 -1.514,3.617 0.548,3.838l6.232,0.669c29.835,3.187 57.538,19.387 74.716,46.355z"/>
  <path id="svg_4" fill="#ffebd2" d="m331.028,202.186c0,54.696 -44.348,99 -99,99c-51.492,0 -99,-40.031 -99,-102.13l0,-61.77c0,-26.51 21.49,-48 48,-48l102,0c26.51,0 48,21.49 48,48l0,64.9z"/>
  <path id="svg_5" fill="#fff" d="m313.028,447.056l-24,0c-4.418,0 -8,-3.582 -8,-8s3.582,-8 8,-8l24,0c4.418,0 8,3.582 8,8s-3.581,8 -8,8z"/>
  <path id="svg_6" fill="#fff3e4" d="m209.612,266.114c16.277,10.183 3.442,35.156 -14.376,28.004c-36.634,-14.704 -62.208,-50.404 -62.208,-91.932l0,-64.9c0,-10.084 3.11,-19.442 8.422,-27.168c6.514,-9.473 21.578,-5.288 21.578,7.168l0,64.9c0,36.51 19.192,66.79 46.584,83.928z"/>
  <path id="svg_7" fill="#ffd6a6" d="m271.158,310.476c-24.637,10.313 -51.712,11.113 -78.26,0c1.356,-5.626 1.13,-9.27 1.13,-16.42l0.15,-0.37c24.082,9.996 51.571,10.016 75.7,0l0.15,0.37c0,7.153 -0.226,10.796 1.13,16.42z"/>
  <path id="svg_9" fill="#e84857" d="m271.146,366.383c3.698,1.163 7.664,1.804 11.916,1.841c41.296,0.364 74.966,33.017 74.966,74.315l0,7.517c0,7.732 6.268,14 14,14l6,0c4.418,0 8,-3.582 8,-8l0,-39.26c0,-41.191 -33.395,-74.555 -74.585,-74.57c-14.564,-0.005 -27.387,-7.504 -34.765,-18.86c-2.974,2.54 -6.158,4.823 -9.512,6.822c-14.752,8.791 -12.402,31.044 3.98,36.195z"/>
  <path id="svg_10" fill="#4d4e59" d="m305.138,19.776c-11.758,4.839 -13.434,5.906 -17.508,5.274c-65.674,-10.18 -123.294,16.993 -142.862,80.786l0,0.01c-7.32,8.42 -11.74,19.42 -11.74,31.44l0,37.523c0,16.188 -25,17.315 -25,-0.293l0,-41.56c-0.32,-14.47 0.34,-65.5 37.2,-101.03c42.86,-41.31 110.78,-37.93 159.98,-15.83c1.6,0.72 1.55,3.01 -0.07,3.68z"/>
  <path id="svg_11" fill="#0bc40b" d="m376.078,208.35803c-52.06345,0 -94.4,42.26657 -94.4,94.4s42.19659,94.46998 94.4,94.46998s94.4,-42.26657 94.4,-94.4s-42.26657,-94.46998 -94.4,-94.46998zm55.14248,98.24878c0,2.16931 -1.74944,3.91875 -3.91875,3.91875l-43.31623,0l0,43.24626c0,2.16931 -1.74944,3.91875 -3.91875,3.91875l-7.90749,0c-2.16931,0 -3.91875,-1.74944 -3.91875,-3.91875l0,-43.24626l-43.24626,0c-2.16931,0 -3.91875,-1.74944 -3.91875,-3.91875l0,-7.90749c0,-2.16931 1.74944,-3.91875 3.91875,-3.91875l43.24626,0l0,-43.24626c0,-2.16931 1.74944,-3.91875 3.91875,-3.91875l7.90749,0c2.16931,0 3.91875,1.74944 3.91875,3.91875l0,43.24626l43.17628,0c2.16931,0 3.91875,1.74944 3.91875,3.91875l0,7.90749l0.13996,0z" />
  <g id="Layer"/>
  <g id="Layer"/>
  <g id="Layer"/>
  <g id="Layer"/>
  <g id="Layer"/>
  <g id="Layer"/>
  <g id="Layer"/>
  <g id="Layer"/>
  <g id="Layer"/>
  <g id="Layer"/>
  <g id="Layer"/>
  <g id="Layer"/>
  <g id="Layer"/>
  <g id="Layer"/>
  <g id="Layer"/>
 </g>
</svg>