<svg id="Layer_1" enable-background="new 0 0 497 497" height="512" viewBox="0 0 497 497" width="512" xmlns="http://www.w3.org/2000/svg"><g><path d="m248.5 105 38.5 75h30c16.569 0 30-13.431 30-30z" fill="#ff9441"/><path d="m317 150-68.5-45-98.5 45c0 16.569 13.432 30 30 30h107c16.569 0 30-13.431 30-30z" fill="#ffb739"/><path d="m407 30h-30v120h30c16.569 0 30-13.431 30-30v-60c0-16.569-13.431-30-30-30z" fill="#ffb739"/><path d="m377 30h-287c-16.568 0-30 13.431-30 30v60c0 16.569 13.432 30 30 30h287c16.569 0 30-13.431 30-30z" fill="#ffd17e"/><path d="m377 0-45 60 45 60h30v-112.5c0-4.142-3.358-7.5-7.5-7.5z" fill="#1b74d6"/><path d="m347 0-45 60 45 60h30v-120z" fill="#1e8aff"/><path d="m90 7.5v112.5h60l45-60-45-60h-52.5c-4.142 0-7.5 3.358-7.5 7.5z" fill="#1e8aff"/><path d="m150 0v120h30l45-60-45-60z" fill="#fff7e8"/><path d="m317 0-45 60 45 60h30v-120z" fill="#fff7e8"/><path d="m287 0-45 60 45 60h30v-120z" fill="#f0224e"/><path d="m180 0h107v120h-107z" fill="#ff4c50"/><circle cx="248.5" cy="338.5" fill="#ffd17e" r="158.5"/><path d="m248.5 210v257c70.969 0 128.5-57.531 128.5-128.5s-57.531-128.5-128.5-128.5z" fill="#ff9441"/><path d="m347 338.5c0-70.969-44.1-128.5-98.5-128.5-70.969 0-128.5 57.531-128.5 128.5s57.531 128.5 128.5 128.5c54.4 0 98.5-57.531 98.5-128.5z" fill="#ffb739"/><path d="m248.5 270v137c37.832 0 68.5-30.668 68.5-68.5s-30.669-68.5-68.5-68.5z" fill="#ffd17e"/><path d="m287 338.5c0-37.832-17.237-68.5-38.5-68.5-37.832 0-68.5 30.668-68.5 68.5s30.668 68.5 68.5 68.5c21.263 0 38.5-30.668 38.5-68.5z" fill="#ffeac3"/></g></svg>