<?xml version="1.0" encoding="utf-8"?>
<!-- Generator: Adobe Illustrator 23.0.3, SVG Export Plug-In . SVG Version: 6.00 Build 0)  -->
<svg class="menu-button" version="1.1" id="Capa_1" xmlns="http://www.w3.org/2000/svg" xmlns:xlink="http://www.w3.org/1999/xlink" x="0px" y="0px"
	 viewBox="0 0 215.6 512" style="enable-background:new 0 0 215.6 512;" xml:space="preserve">
<style type="text/css">
	.st0{fill:#333333;}
</style>
<g>
	<g>
		<g>
			<circle class="st0" cx="107.8" cy="256" r="47.2"/>
			<circle class="st0" cx="107.8" cy="397.5" r="47.2"/>
			<circle class="st0" cx="107.8" cy="114.5" r="47.2"/>
		</g>
	</g>
</g>
<g>
	<path class="st0" d="M107.8,26.9c44.5,0,80.8,36.4,80.8,80.8v296.4c0,44.5-36.4,80.8-80.8,80.8S27,448.5,27,404.1V107.8
		C27,63.3,63.3,26.9,107.8,26.9 M107.8,0L107.8,0C48.5,0,0,48.5,0,107.8v296.4C0,463.5,48.5,512,107.8,512l0,0
		c59.3,0,107.8-48.5,107.8-107.8V107.8C215.6,48.5,167.1,0,107.8,0L107.8,0z"/>
</g>
</svg>
