<svg version="1.2" xmlns="http://www.w3.org/2000/svg" viewBox="0 0 512 512" width="512" height="512">
	<title>microphone-send-svg</title>
	<style>
		.s0 { fill: #7d98b3 } 
		.s1 { fill: #1f63ad } 
		.s2 { fill: #004999 } 
		.s3 { fill: #b8c8d9 } 
		.s4 { fill: #a3b8cc } 
		.s5 { fill: #e6f3ff } 
		.s6 { fill: #cfdbe6 } 
		.s7 { fill: #36c917 } 
	</style>
	<path id="Layer" class="s0" d="m239.3 417.4v77.9c0 9.2 7.5 16.7 16.7 16.7 9.2 0 16.7-7.5 16.7-16.7v-77.9c0-9.2-7.5-16.7-16.7-16.7-9.2 0-16.7 7.5-16.7 16.7z"/>
	<path id="Layer" class="s1" d="m322.8 478.6h-133.6c-9.2 0-16.7 7.5-16.7 16.7 0 9.2 7.5 16.7 16.7 16.7h133.6c9.2 0 16.7-7.5 16.7-16.7 0-9.2-7.5-16.7-16.7-16.7z"/>
	<path id="Layer" class="s2" d="m322.8 478.6h-66.8v33.4h66.8c9.2 0 16.7-7.5 16.7-16.7 0-9.2-7.5-16.7-16.7-16.7z"/>
	<path id="Layer" class="s3" d="m406.3 250.4c-0.1 82.8-67.4 150.3-150.3 150.3-82.8 0-150.2-67.4-150.3-150.3 0-9.2-7.4-16.7-16.7-16.7-9.2 0-16.7 7.5-16.7 16.7 0.1 101.3 82.4 183.7 183.7 183.7 101.3 0 183.6-82.4 183.6-183.7 0-9.2-7.4-16.7-16.6-16.7-9.3 0-16.7 7.5-16.7 16.7z"/>
	<path id="Layer" class="s4" d="m439.7 250.4c0-9.2-7.5-16.7-16.7-16.7-9.3 0-16.7 7.5-16.7 16.7-0.1 82.8-67.4 150.3-150.3 150.3v33.4c101.3 0 183.6-82.4 183.7-183.7z"/>
	<path id="Layer" class="s5" d="m256 0c-58.8 0-107.5 43.7-115.5 100.2-1 5.3-1.4 11-1.4 16.7v133.5c0 64.5 52.5 116.9 116.9 116.9 64.4 0 116.9-52.4 116.9-116.9v-133.5c0-64.5-52.5-116.9-116.9-116.9z"/>
	<path id="Layer" class="s6" d="m372.9 116.9v133.5c0 64.5-52.5 116.9-116.9 116.9v-367.3c64.4 0 116.9 52.4 116.9 116.9z"/>
	<path id="Layer" class="s1" d="m139.1 233.7v16.7c0.1 64.5 52.4 116.9 116.9 116.9 64.5 0 116.8-52.4 116.9-116.9v-16.7z"/>
	<path id="Layer" class="s2" d="m256 233.7v133.6c64.5 0 116.8-52.4 116.9-116.9v-16.7z"/>
	<g id="Layer">
		<path id="Layer" class="s4" d="m372.9 116.9v16.7h-50.1c-9.4 0-16.7-7.4-16.7-16.7 0-9.4 7.3-16.7 16.7-16.7h48.7c1 5.3 1.4 11 1.4 16.7z"/>
		<path id="Layer" class="s4" d="m372.9 167v33.3h-50.1c-9.4 0-16.7-7.3-16.7-16.6 0-9.4 7.3-16.7 16.7-16.7z"/>
	</g>
	<g id="Layer">
		<path id="Layer" class="s3" d="m205.9 116.9c0 9.3-7.3 16.7-16.7 16.7h-50.1v-16.7c0-5.7 0.4-11.4 1.4-16.7h48.7c9.4 0 16.7 7.3 16.7 16.7z"/>
		<path id="Layer" class="s3" d="m205.9 183.7c0 9.3-7.3 16.6-16.7 16.6h-50.1v-33.3h50.1c9.4 0 16.7 7.3 16.7 16.7z"/>
	</g>
	<g id="Layer">
	</g>
	<g id="Layer">
	</g>
	<g id="Layer">
	</g>
	<g id="Layer">
	</g>
	<g id="Layer">
	</g>
	<g id="Layer">
	</g>
	<g id="Layer">
	</g>
	<g id="Layer">
	</g>
	<g id="Layer">
	</g>
	<g id="Layer">
	</g>
	<g id="Layer">
	</g>
	<g id="Layer">
	</g>
	<g id="Layer">
	</g>
	<g id="Layer">
	</g>
	<g id="Layer">
	</g>
	<path id="asd" class="s7" d="m327.4 93l-43.6 43.6 141.3 141.4-141.3 141.4 43.6 43.6 185-185z"/>
</svg>