<svg id="b80f5695-f770-440c-8d21-a2d65b715bd7" data-name="Capa 1" xmlns="http://www.w3.org/2000/svg" viewBox="0 0 388.31 512">
  <path d="M321.31,74a28.57,28.57,0,0,0-48.78,20.21V61.76a28.59,28.59,0,0,0-57.17,0V35.59A28.56,28.56,0,0,0,186.15,7c-15.63.34-28,13.51-28,29.15V69.41a28.58,28.58,0,0,0-57.16,0V179.08L101,210.86l26.27,88.84,7.52,141-3.61,63.45H292.41a8.71,8.71,0,0,0,8.7-8.7V420.65l11.05-16.1A100,100,0,0,0,329.69,348V94.17A28.43,28.43,0,0,0,321.31,74Z" transform="translate(-41.04 0)" fill="#ffe5c2" />
  <path d="M185.3,354a17.28,17.28,0,0,0,17.28-17.28,90.71,90.71,0,0,0-58-84.61l-14.36-5.56a4.47,4.47,0,0,1-2.86-4.17V186.24a30.11,30.11,0,0,0-26.2-29.83v27.8a30,30,0,0,0-24.65-12.85,30.71,30.71,0,0,0-5.71.55,30,30,0,0,0-3.62,14.33V318.85a72.85,72.85,0,0,0,9,35.12Z" transform="translate(-41.04 0)" fill="#fed2a4" />
  <path d="M90.43,411v83.6a9.58,9.58,0,0,0,9.59,9.58H181.7V346.77a90.72,90.72,0,0,0-58-84.61l-17.22-6.66V196.33a30.09,30.09,0,1,0-60.18,0V328.94a72.91,72.91,0,0,0,15.18,44.53Z" transform="translate(-41.04 0)" fill="#ffe5c2" />
  <path d="M90.43,411v83.6a9.58,9.58,0,0,0,9.59,9.58H292.4a8.71,8.71,0,0,0,8.71-8.7V488.7c-5.35-.08-127.91-.1-137.32-.1a34.34,34.34,0,0,1-34.35-34.35V413.52a42.38,42.38,0,0,0-8.84-25.9l-20.11-26a72.88,72.88,0,0,1-15.18-44.53V184.44a30,30,0,0,1,4.12-15.22A30.08,30.08,0,0,0,46.3,196.33V328.94a72.85,72.85,0,0,0,15.19,44.53Z" transform="translate(-41.04 0)" fill="#fed2a4" />
  <path d="M101,69.41,101,180.57h26.27V41A28.57,28.57,0,0,0,101,69.41Z" transform="translate(-41.04 0)" fill="#fed2a4" />
  <path d="M186.78,7A28.58,28.58,0,0,0,158.2,35.59V69.41c0-.17,0-.34,0-.52V211.26h1.19a30,30,0,0,0,30-30V7.14c-.85-.08-1.71-.13-2.59-.13Z" transform="translate(-41.04 0)" fill="#fed2a4" />
  <path d="M244,33.19a28.58,28.58,0,0,0-28.55,27.1v151h1.49a30,30,0,0,0,30-30V33.35A28.3,28.3,0,0,0,244,33.19Z" transform="translate(-41.04 0)" fill="#fed2a4" />
  <path d="M301.11,65.58a28.57,28.57,0,0,0-28.37,25.21V211.26a30,30,0,0,0,30-30V65.63C302.19,65.6,301.65,65.58,301.11,65.58Z" transform="translate(-41.04 0)" fill="#fed2a4" />
  <path d="M69.49,365.19A64.82,64.82,0,0,1,56,325.75V290.36a7.5,7.5,0,1,0-15,0v35.39a80,80,0,0,0,16.58,48.61l27.05,35v95.1a7.5,7.5,0,1,0,15,0V406.84a7.5,7.5,0,0,0-1.56-4.58Z" transform="translate(-41.04 0)" />
  <path d="M300.44,57.91a35.57,35.57,0,0,0-20.76,6.67V61.63a35.72,35.72,0,0,0-56.65-29,35.75,35.75,0,0,0-71.37,3.1v4.36A35.72,35.72,0,0,0,95.15,69.19v92.28A37.22,37.22,0,0,0,41,194.66v63.75a7.5,7.5,0,1,0,15,0V194.66a22.25,22.25,0,0,1,44.5,0v58.5a7.49,7.49,0,0,0,4.79,7l17,6.58a82.17,82.17,0,0,1,52.54,76.65,7.5,7.5,0,0,0,15,0,97.19,97.19,0,0,0-62.13-90.63L115.52,248V194.66a37,37,0,0,0-5.37-19.26V69.19a20.76,20.76,0,0,1,41.51,0V195.84a7.5,7.5,0,0,0,15,0V35.75a20.76,20.76,0,0,1,41.52,0V195.84a7.5,7.5,0,0,0,15,0V61.63a20.76,20.76,0,1,1,41.52,0V195.84a7.5,7.5,0,0,0,15,0V93.66a20.76,20.76,0,0,1,41.52,0V274.38a7.5,7.5,0,1,0,15,0V93.66a35.79,35.79,0,0,0-35.75-35.75Z" transform="translate(-41.04 0)" />
  <path d="M328.69,298.84a7.49,7.49,0,0,0-7.5,7.49v38.26a91,91,0,0,1-16,51.68l-10.92,15.91a7.56,7.56,0,0,0-1.31,4.25v87.7a7.5,7.5,0,1,0,15,0V418.75l9.61-14a105.9,105.9,0,0,0,18.65-60.16V306.33A7.49,7.49,0,0,0,328.69,298.84Z" transform="translate(-41.04 0)" />
  <path d="M376.39,329.38a7.5,7.5,0,0,0-12.46,8.35l.31.45a19.15,19.15,0,0,1-.22,21.48,7.5,7.5,0,1,0,12.28,8.6,34.21,34.21,0,0,0,.39-38.42Z" transform="translate(-41.04 0)" />
  <path d="M404.9,306.18a7.5,7.5,0,1,0-12.46,8.35l.77,1.14a59.84,59.84,0,0,1-.68,67.2,7.5,7.5,0,1,0,12.28,8.6,74.47,74.47,0,0,0,.85-84.15Z" transform="translate(-41.04 0)" />
  <circle cx="251.9" cy="375.6" r="136.4" fill="#fff" />
  <path d="M292.94,239.19A136.41,136.41,0,1,0,429.34,375.6,136.4,136.4,0,0,0,292.94,239.19ZM180.05,375.6A112.82,112.82,0,0,1,365.26,289L206.34,447.91A112.33,112.33,0,0,1,180.05,375.6ZM292.94,488.48a112.32,112.32,0,0,1-69.71-24.19l158.4-158.41a112.79,112.79,0,0,1-88.69,182.6Z" transform="translate(-41.04 0)" fill="#dd352e" />
</svg>