<svg id="eda1bce5-75e2-4cc3-8c35-5b8e01f83336" data-name="Capa 1" xmlns="http://www.w3.org/2000/svg" viewBox="0 0 465.97 512">
  <path d="M466,483.35v.38a28.71,28.71,0,0,1-37.61,26.85A572.65,572.65,0,0,0,256,484.67,572.65,572.65,0,0,0,83.64,510.58,28.72,28.72,0,0,1,46,483.73v-.38c0-37.75,19.4-76.67,51.44-107.87,88.49-85.25,228.56-85.25,317,0C446.56,406.68,466,445.6,466,483.35Z" transform="translate(-46.03 0)" fill="#62667c" />
  <path d="M414.53,375.48c-88.58,85-228.48,85-317.06,0C186,290.23,326,290.23,414.53,375.48Z" transform="translate(-46.03 0)" fill="#4f5363" />
  <circle cx="209.97" cy="209.95" r="209.95" fill="#eeefee" />
  <path d="M256,332.89A122.94,122.94,0,1,1,378.94,210,122.94,122.94,0,0,1,256,332.89Z" transform="translate(-46.03 0)" fill="#62667c" />
  <path d="M256,300.66A90.71,90.71,0,1,1,346.71,210,90.7,90.7,0,0,1,256,300.66Z" transform="translate(-46.03 0)" fill="#828a9e" />
  <path d="M256,268.43A58.48,58.48,0,1,1,314.48,210h0A58.54,58.54,0,0,1,256,268.43Z" transform="translate(-46.03 0)" fill="#69b0ee" />
  <circle cx="209.92" cy="48.09" r="17.72" fill="#ef5261" />
  <ellipse cx="230.51" cy="187.85" rx="25.38" ry="12.89" transform="translate(-111.34 218.02) rotate(-45)" fill="#eeefee" />
  <circle cx="293.83" cy="339.86" r="172.14" fill="#c6c6c6" />
  <path d="M339.86,167.72A172.14,172.14,0,1,0,512,339.86,172.14,172.14,0,0,0,339.86,167.72ZM197.4,339.86c0-78.55,63.91-142.46,142.46-142.46a141.78,141.78,0,0,1,91.26,33.17L230.57,431.12A141.8,141.8,0,0,1,197.4,339.86ZM339.86,482.32a141.75,141.75,0,0,1-88-30.53l199.9-199.91a141.8,141.8,0,0,1,30.53,88C482.32,418.41,418.41,482.32,339.86,482.32Z" transform="translate(-46.03 0)" fill="#dd352e" />
</svg>