<svg id="ff6598c6-d0e2-45c1-9be2-8df4ce3f75b9" data-name="Layer 1" xmlns="http://www.w3.org/2000/svg" viewBox="0 0 512.99 513">
  <path d="M455.81,511.66H56.18a18.94,18.94,0,0,1-19-19V187.12H474.77V492.71A19,19,0,0,1,455.81,511.66Z" transform="translate(0 0)" fill="#ffc73b" />
  <path d="M37.23,187.12H474.77v63.59H37.23Z" transform="translate(0 0)" fill="#efb025" />
  <path d="M512,120.82v78.79a15.24,15.24,0,0,1-15.24,15.23H15.23A15.23,15.23,0,0,1,0,199.61V120.82a15.23,15.23,0,0,1,15.23-15.23H496.76A15.24,15.24,0,0,1,512,120.82Z" transform="translate(0 0)" fill="#ffc73b" />
  <path d="M238.59,141.81q-5,5.81-9.77,11.77a441.42,441.42,0,0,0-32.53,46.28q-4.53,7.41-8.77,15H83.68q9.1-20.65,19.93-40.49a535.49,535.49,0,0,1,44.65-68.76q6-7.8,12.23-15.41c2.5-3.06,5-6.07,7.62-9.07q14.22,12.24,28.43,24.48l4.4,3.8,33.56,28.9Z" transform="translate(0 0)" fill="#efb025" />
  <path d="M393.53,214.84H289.68q-4.23-7.58-8.76-15a444.51,444.51,0,0,0-32.54-46.28q-4.8-6-9.79-11.77c1.37-1.17,2.73-2.35,4.11-3.52l33.56-28.9,4.41-3.8q14.2-12.24,28.42-24.48,3.87,4.48,7.62,9.06Q323,97.78,329,105.59a537.64,537.64,0,0,1,44.65,68.76Q384.42,194.17,393.53,214.84Z" transform="translate(0 0)" fill="#efb025" />
  <path d="M256,141.82q-5,5.81-9.77,11.76a444.29,444.29,0,0,0-93.13,213.7A446.42,446.42,0,0,1,117,310.92,469.52,469.52,0,0,0,61,353.8,537.51,537.51,0,0,1,177.88,90.18c2.5-3.05,5.05-6.06,7.62-9.07l32.84,28.28q16.77,14.44,33.55,28.91C253.26,139.46,254.62,140.64,256,141.82Z" transform="translate(0 0)" fill="#ff4440" />
  <path d="M451,353.8A467.92,467.92,0,0,0,395,310.92a446.37,446.37,0,0,1-36.12,56.36,444.14,444.14,0,0,0-60.6-167.41,440.59,440.59,0,0,0-32.54-46.29q-4.78-6-9.78-11.76l4.1-3.52q16.8-14.48,33.57-28.91l32.83-28.28q3.87,4.5,7.62,9.06A536.4,536.4,0,0,1,391,174.36,537.32,537.32,0,0,1,451,353.8Z" transform="translate(0 0)" fill="#ff4440" />
  <path d="M215.23,141.82h81.53v73H215.23Z" transform="translate(0 0)" fill="#ff4440" />
  <path d="M391,174.36l-92.69,25.51a440.59,440.59,0,0,0-32.54-46.29l-5.68-15.28-4.1-11,37.67-17.88,40.45-19.22A536.4,536.4,0,0,1,391,174.36Z" transform="translate(0 0)" fill="#ea2f2f" />
  <path d="M256,127.27l-4.1,11-5.67,15.28a442.08,442.08,0,0,0-32.54,46.29L121,174.36a536.66,536.66,0,0,1,56.87-84.18l40.46,19.21Z" transform="translate(0 0)" fill="#ea2f2f" />
  <path d="M403.91,3.54,256,73.79l28.41,76.42,157.88-43.46a36.5,36.5,0,0,0,24.53-47.92l-13-35A36.52,36.52,0,0,0,403.91,3.54Z" transform="translate(0 0)" fill="#ff4440" />
  <path d="M108.08,3.54,256,73.79l-28.42,76.42L69.7,106.75A36.5,36.5,0,0,1,45.18,58.83l13-35A36.52,36.52,0,0,1,108.08,3.54Z" transform="translate(0 0)" fill="#ff4440" />
  <path d="M291.32,104.5a8.15,8.15,0,0,1-4.41-15c1.13-.71,27.77-17.67,58.35-30,44.1-17.83,73.54-16.88,87.51,2.85a8.15,8.15,0,0,1-13.31,9.42C400.53,45,321.79,86.55,295.7,103.22A8.1,8.1,0,0,1,291.32,104.5Z" transform="translate(0 0)" fill="#ea2f2f" />
  <path d="M219.87,104.5a8.1,8.1,0,0,1-4.38-1.28C189.4,86.55,110.66,45,91.72,71.71a8.15,8.15,0,0,1-13.3-9.42c14-19.73,43.41-20.68,87.51-2.85a401.05,401.05,0,0,1,58.34,30,8.15,8.15,0,0,1-4.4,15Z" transform="translate(0 0)" fill="#ea2f2f" />
  <path d="M279.19,47.52H232.8a23,23,0,0,0-23,23v67.39a23,23,0,0,0,23,23h46.39a23,23,0,0,0,23-23V70.52A23,23,0,0,0,279.19,47.52Z" transform="translate(0 0)" fill="#ea2f2f" />
  <path d="M215.23,214.84h81.53V511.66H215.23Z" transform="translate(0 0)" fill="#ff4440" />
  <path d="M215.23,214.84h81.53v35.87H215.23Z" transform="translate(0 0)" fill="#ea2f2f" />
  <circle cx="356.43" cy="356.43" r="156.56" fill="#ccc" />
  <path d="M356.43,199.87A156.57,156.57,0,1,0,513,356.44,156.57,156.57,0,0,0,356.43,199.87ZM226.86,356.44c0-71.45,58.13-129.58,129.57-129.58a128.94,128.94,0,0,1,83,30.18L257,439.44A129,129,0,0,1,226.86,356.44ZM356.43,486a128.89,128.89,0,0,1-80-27.78L458.23,276.42a129,129,0,0,1,27.77,80C486,427.88,427.87,486,356.43,486Z" transform="translate(0 0)" fill="#dd352e" />
</svg>