<svg id="Artboard_01" enable-background="new 0 0 64 64" height="512" viewBox="0 0 64 64" width="512" xmlns="http://www.w3.org/2000/svg"><circle cx="32" cy="30" fill="#f4b2b0" r="4"/><path d="m32 34c-3.75 0-7.013 2.529-8.692 6.258 2.186 2.3 5.268 3.742 8.692 3.742s6.506-1.442 8.692-3.742c-1.679-3.729-4.942-6.258-8.692-6.258z" fill="#f4b2b0"/><g><path d="m58 27c-2.414 0-4.434 1.721-4.899 4h-8.152c-.217-2.833-1.341-5.411-3.088-7.448l7.386-7.386c.791.525 1.736.834 2.753.834 2.757 0 5-2.243 5-5s-2.243-5-5-5-5 2.243-5 5c0 1.017.309 1.963.833 2.753l-7.386 7.385c-2.036-1.747-4.615-2.871-7.447-3.088v-8.152c2.279-.465 4-2.484 4-4.899 0-2.757-2.243-5-5-5s-5 2.243-5 5c0 2.414 1.721 4.434 4 4.899v8.152c-2.833.217-5.411 1.341-7.447 3.088l-7.386-7.385c.524-.79.833-1.736.833-2.753 0-2.757-2.243-5-5-5s-5 2.243-5 5 2.243 5 5 5c1.017 0 1.962-.309 2.753-.833l7.386 7.386c-1.747 2.037-2.871 4.615-3.088 7.448h-8.152c-.465-2.28-2.485-4.001-4.899-4.001-2.757 0-5 2.243-5 5s2.243 5 5 5c2.414 0 4.434-1.721 4.899-4h8.152c.217 2.832 1.341 5.411 3.088 7.447l-7.386 7.386c-.791-.524-1.736-.833-2.753-.833-2.757 0-5 2.243-5 5s2.243 5 5 5 5-2.243 5-5c0-1.017-.309-1.963-.833-2.753l7.386-7.385c2.036 1.747 4.615 2.871 7.447 3.088v8.152c-2.279.465-4 2.484-4 4.899 0 2.757 2.243 5 5 5s5-2.243 5-5c0-2.414-1.721-4.434-4-4.899v-8.152c2.833-.217 5.411-1.341 7.447-3.088l7.386 7.385c-.524.79-.833 1.736-.833 2.753 0 2.757 2.243 5 5 5s5-2.243 5-5-2.243-5-5-5c-1.017 0-1.962.309-2.753.833l-7.386-7.386c1.747-2.036 2.871-4.614 3.088-7.447h8.152c.465 2.279 2.484 4 4.899 4 2.757 0 5-2.243 5-5s-2.243-5-5-5zm-52 8c-1.654 0-3-1.346-3-3s1.346-3 3-3 3 1.346 3 3-1.346 3-3 3zm46-26c1.654 0 3 1.346 3 3s-1.346 3-3 3-3-1.346-3-3 1.346-3 3-3zm-23-3c0-1.654 1.346-3 3-3s3 1.346 3 3-1.346 3-3 3-3-1.346-3-3zm-17 9c-1.654 0-3-1.346-3-3s1.346-3 3-3 3 1.346 3 3-1.346 3-3 3zm17 15c0-1.654 1.346-3 3-3s3 1.346 3 3-1.346 3-3 3-3-1.346-3-3zm-17 25c-1.654 0-3-1.346-3-3s1.346-3 3-3 3 1.346 3 3-1.346 3-3 3zm12.539-14.941c1.636-3.128 4.433-5.059 7.461-5.059s5.825 1.931 7.461 5.059c-1.963 1.819-4.58 2.941-7.461 2.941s-5.498-1.122-7.461-2.941zm10.461 17.941c0 1.654-1.346 3-3 3s-3-1.346-3-3 1.346-3 3-3 3 1.346 3 3zm17-9c1.654 0 3 1.346 3 3s-1.346 3-3 3-3-1.346-3-3 1.346-3 3-3zm-11.119-10.536c-1.361-2.283-3.29-3.957-5.488-4.814.982-.914 1.607-2.206 1.607-3.65 0-2.757-2.243-5-5-5s-5 2.243-5 5c0 1.444.625 2.736 1.607 3.65-2.198.857-4.127 2.531-5.488 4.814-1.326-1.817-2.119-4.047-2.119-6.464 0-6.065 4.935-11 11-11s11 4.935 11 11c0 2.417-.793 4.647-2.119 6.464zm17.119-3.464c-1.654 0-3-1.346-3-3s1.346-3 3-3 3 1.346 3 3-1.346 3-3 3z" fill="#b3404a"/></g></svg>