<svg height="512pt" viewBox="0 -30 512 512" width="512pt" xmlns="http://www.w3.org/2000/svg"><path d="m504.394531 124.855469v270.976562c0 26.339844-21.359375 47.691407-47.699219 47.691407h-401.398437c-26.339844 0-47.691406-21.351563-47.691406-47.691407v-270.976562c0-6.914063 1.429687-13.492188 4.003906-19.453125 7.53125-17.429688 24.878906-29.636719 45.074219-29.636719h398.621094c3.183593 0 6.296874.304687 9.308593.882813 22.660157 4.347656 39.78125 24.28125 39.78125 48.207031zm0 0" fill="#fec970"/><g fill="#fba028"><path d="m471.222656 113.550781c0 58.523438-47.429687 105.960938-105.949218 105.960938-58.507813 0-105.949219-47.4375-105.949219-105.960938 0-13.308593 2.453125-26.054687 6.945312-37.785156h189.035157c3.183593 0 6.296874.304687 9.308593.882813 4.277344 11.496093 6.609375 23.925781 6.609375 36.902343zm0 0"/><path d="m149.851562 244.898438-142.246093-118.441407v-1.601562c0-27.109375 21.972656-49.089844 49.082031-49.089844h81.707031c-86.714843 0-78.472656 60.46875 11.457031 169.132813zm0 0"/><path d="m448.121094 173.324219-134.683594 112.132812c-33.273438 27.71875-81.59375 27.71875-114.878906 0l-134.671875-112.132812-3.308594-2.757813-48.964844-65.164062c-2.578125 5.960937-4.007812 12.539062-4.007812 19.453125v270.976562c0 26.339844 21.355469 47.691407 47.695312 47.691407h202.730469s-61.957031-7.191407-114.902344-27.46875c-43.195312-16.542969-79.242187-60.539063-79.242187-106.789063v-61.816406c0-16.648438 19.414062-25.746094 32.207031-15.09375l102.464844 85.316406c33.285156 27.71875 81.605468 27.71875 114.878906 0l134.683594-112.132813 56.277344-46.859374v-32.214844zm0 0"/></g><path d="m504.398438 113.554688c0 58.515624-47.433594 105.953124-105.949219 105.953124s-105.949219-47.4375-105.949219-105.953124c0-58.511719 47.433594-105.949219 105.949219-105.949219s105.949219 47.4375 105.949219 105.949219zm0 0" fill="#d80303"/><path d="m504.394531 113.550781c0 51.496094-36.71875 94.402344-85.40625 103.964844-48.6875-9.550781-85.417969-52.46875-85.417969-103.964844 0-51.480469 36.730469-94.398437 85.417969-103.949219 48.6875 9.558594 85.40625 52.46875 85.40625 103.949219zm0 0" fill="#f71e1e"/><path d="m504.394531 335.679688c-4.199219 0-7.601562 3.402343-7.601562 7.605468v52.546875c0 22.105469-17.984375 40.085938-40.089844 40.085938h-401.40625c-22.105469 0-40.089844-17.980469-40.089844-40.085938v-253.148437l178.480469 148.613281c18.058594 15.035156 40.183594 22.550781 62.3125 22.550781 22.125 0 44.253906-7.519531 62.300781-22.550781l52.09375-43.375c3.230469-2.683594 3.667969-7.480469.980469-10.707031-2.6875-3.230469-7.484375-3.664063-10.710938-.980469l-52.097656 43.375c-30.457031 25.375-74.675781 25.375-105.148437 0l-188.160157-156.671875c1.007813-21.988281 19.207032-39.566406 41.4375-39.566406h59.441407c4.199219 0 7.605469-3.40625 7.605469-7.605469s-3.40625-7.605469-7.605469-7.605469h-59.441407c-31.261718 0-56.695312 25.433594-56.695312 56.695313v270.976562c0 30.488281 24.804688 55.296875 55.296875 55.296875h401.40625c30.492187 0 55.296875-24.808594 55.296875-55.296875v-52.546875c0-4.203125-3.402344-7.605468-7.605469-7.605468zm0 0"/><path d="m331.003906 299.152344c-2.6875 3.230468-2.25 8.023437.980469 10.710937l121.246094 100.953125c1.421875 1.179688 3.148437 1.757813 4.863281 1.757813 2.179688 0 4.34375-.933594 5.847656-2.738281 2.683594-3.230469 2.246094-8.023438-.980468-10.710938l-121.246094-100.949219c-3.226563-2.6875-8.023438-2.25-10.710938.976563zm0 0"/><path d="m170.292969 298.175781-121.246094 100.949219c-3.230469 2.6875-3.667969 7.480469-.980469 10.710938 1.503906 1.804687 3.667969 2.738281 5.847656 2.738281 1.714844 0 3.441407-.578125 4.859376-1.757813l121.25-100.953125c3.230468-2.6875 3.664062-7.480469.980468-10.710937-2.691406-3.226563-7.484375-3.664063-10.710937-.976563zm0 0"/><path d="m512 113.550781c0-54.136719-38.5-100.992187-91.542969-111.410156-7.210937-1.421875-14.617187-2.140625-22.007812-2.140625-46.484375 0-86.527344 28.078125-104.078125 68.160156h-147.816406c-4.199219 0-7.605469 3.40625-7.605469 7.605469s3.40625 7.605469 7.605469 7.605469h142.421874c-2.65625 9.613281-4.082031 19.734375-4.082031 30.179687 0 62.621094 50.941407 113.5625 113.554688 113.5625 7.390625 0 14.796875-.71875 22.003906-2.136719 33-6.480468 60.363281-27.070312 76.339844-54.742187v142.628906c0 4.199219 3.402343 7.605469 7.601562 7.605469 4.203125 0 7.605469-3.40625 7.605469-7.605469 0 .003907 0-197.125 0-199.3125zm-94.480469 96.503907c-6.246093 1.226562-12.664062 1.851562-19.070312 1.851562-54.230469 0-98.347657-44.121094-98.347657-98.355469 0-54.226562 44.117188-98.34375 98.347657-98.34375 6.40625 0 12.820312.625 19.074219 1.855469 45.929687 9.019531 79.269531 49.601562 79.269531 96.488281 0 46.898438-33.339844 87.480469-79.273438 96.503907zm0 0"/><path d="m447.558594 64.449219c-2.972656-2.96875-7.785156-2.972657-10.753906 0l-38.355469 38.351562-38.355469-38.351562c-2.96875-2.96875-7.78125-2.96875-10.753906 0-2.96875 2.96875-2.96875 7.78125 0 10.75l38.355468 38.355469-38.355468 38.355468c-2.96875 2.96875-2.96875 7.785156 0 10.753906 1.484375 1.484376 3.433594 2.226563 5.378906 2.226563s3.890625-.742187 5.375-2.226563l38.355469-38.355468 38.355469 38.355468c1.484374 1.484376 3.429687 2.226563 5.375 2.226563 1.949218 0 3.894531-.742187 5.378906-2.226563 2.96875-2.972656 2.96875-7.785156 0-10.753906l-38.355469-38.355468 38.355469-38.355469c2.96875-2.96875 2.96875-7.78125 0-10.75zm0 0"/></svg>