<?xml version="1.0" encoding="iso-8859-1"?>
<!-- Generator: Adobe Illustrator 19.0.0, SVG Export Plug-In . SVG Version: 6.00 Build 0)  -->
<svg version="1.1" id="Capa_1" xmlns="http://www.w3.org/2000/svg" xmlns:xlink="http://www.w3.org/1999/xlink" x="0px" y="0px"
	 viewBox="0 0 512 512" style="enable-background:new 0 0 512 512;" xml:space="preserve">
<g>
	<path style="fill:#1689FC;" d="M256,331c-24.901,0-45,20.099-45,45c0,24.899,20.099,45,45,45s45-20.101,45-45
		C301,351.099,280.901,331,256,331z"/>
	<path style="fill:#1689FC;" d="M428.5,178.599c-5.7,6-15,6.601-21.301,0.901C365.799,141.7,312.1,121,256,121
		s-109.799,20.7-151.199,58.5c-6.301,5.7-15.601,5.1-21.301-0.901s-5.099-15.601,0.901-21.301C131.499,114.699,192.4,91,256,91
		s124.501,23.699,171.599,66.299C433.599,162.999,434.2,172.599,428.5,178.599z"/>
	<path style="fill:#1689FC;" d="M391.3,226.3c-5.7,5.999-15.3,6.299-21.301,0.599c-30.899-29.7-71.4-45.899-114-45.899
		s-83.101,16.199-114,45.899c-6,5.7-15.601,5.4-21.301-0.599c-5.7-6-5.4-15.3,0.601-21.301c36.299-34.799,84.3-54,134.7-54
		s98.401,19.2,134.7,54C396.7,211,397,220.3,391.3,226.3z"/>
	<path style="fill:#1689FC;" d="M353.5,274.6c-6,5.7-15.3,5.4-21-0.601c-20.099-21.299-48.3-31.8-76.5-31.8s-56.4,10.501-76.5,31.8
		c-5.7,6-15,6.301-21,0.601s-6.301-15-0.601-21C183.1,226.599,219.101,211,256,211s72.9,15.599,98.101,42.599
		C359.801,259.6,359.5,268.9,353.5,274.6z"/>
	<path style="fill:#1689FC;" d="M312.4,311.8c-5.099,6.599-14.7,7.8-21,2.701c-11.7-9.001-23.699-13.801-35.4-13.5
		c-2.1,0-4.799,0.3-6.899,0.599c-12.301,1.8-23.401,8.701-30.3,19.2c-4.801,6.901-14.101,8.401-20.7,3.9
		c-6.899-4.799-8.699-14.099-4.2-21c11.7-17.1,30.3-28.499,50.7-31.8C248.5,271.3,252.1,271,256,271
		c18.6,0,37.2,6.899,53.699,19.799C316.3,295.899,317.5,305.2,312.4,311.8z"/>
</g>
<g>
	<path style="fill:#136EF1;" d="M301,376c0,24.899-20.099,45-45,45v-90C280.901,331,301,351.099,301,376z"/>
	<path style="fill:#136EF1;" d="M309.699,290.799c6.601,5.099,7.8,14.401,2.701,21s-14.7,7.8-21,2.701
		c-11.7-9.001-23.699-13.801-35.4-13.5v-30C274.6,271,293.2,277.899,309.699,290.799z"/>
	<path style="fill:#136EF1;" d="M354.101,253.599c5.7,6,5.4,15.3-0.601,21s-15.3,5.4-21-0.601c-20.099-21.299-48.3-31.8-76.5-31.8
		V211C292.899,211,328.9,226.599,354.101,253.599z"/>
	<path style="fill:#136EF1;" d="M428.5,178.599c-5.7,6-15,6.601-21.301,0.901C365.799,141.7,312.1,121,256,121V91
		c63.6,0,124.501,23.699,171.599,66.299C433.599,162.999,434.2,172.599,428.5,178.599z"/>
	<path style="fill:#136EF1;" d="M391.3,226.3c-5.7,5.999-15.3,6.299-21.301,0.599c-30.899-29.7-71.4-45.899-114-45.899v-30
		c50.4,0,98.401,19.2,134.7,54C396.7,211,397,220.3,391.3,226.3z"/>
</g>
<path style="fill:#FD4E26;" d="M256,0C115,0,0,114.699,0,256c0,140.7,115,256,256,256c141.301,0,256-115.6,256-256
	C512,115,396.7,0,256,0z M256,482C132.1,482.3,29.7,380.2,30,256c0-57.301,22.599-109.501,56.8-147.9L256,277.299L403.9,425.2
	C365.501,459.399,313.299,482,256,482z M425.2,403.9L108.1,86.8C146.499,52.599,198.701,30,256,30c124.2,0,226,101.8,226,226
	C482,313.599,459.401,365.499,425.2,403.9z"/>
<path style="fill:#FD3018;" d="M512,256c0,140.4-114.699,256-256,256v-30c57.299,0,109.501-22.601,147.9-56.8L256,277.299V234.7
	l169.2,169.2C459.4,365.499,482,313.6,482,256c0-124.2-101.8-226-226-226V0C396.7,0,512,115,512,256z"/>
<g>
</g>
<g>
</g>
<g>
</g>
<g>
</g>
<g>
</g>
<g>
</g>
<g>
</g>
<g>
</g>
<g>
</g>
<g>
</g>
<g>
</g>
<g>
</g>
<g>
</g>
<g>
</g>
<g>
</g>
</svg>
