<svg xmlns="http://www.w3.org/2000/svg" width="180.62mm" height="180.62mm" viewBox="0 0 512 512"><title>offline</title><path d="M256,512C114.84,512,0,397.16,0,256S114.84,0,256,0,512,114.84,512,256,397.16,512,256,512Zm0-480C132.48,32,32,132.48,32,256S132.48,480,256,480,480,379.52,480,256,379.52,32,256,32Z" transform="translate(0 0)" fill="#333"/><path d="M420.91,228.69A15.94,15.94,0,0,1,409.6,224a216.64,216.64,0,0,0-31.17-25.83,16,16,0,0,1,18-26.46,247.31,247.31,0,0,1,35.84,29.64,16,16,0,0,1-11.32,27.32Z" transform="translate(0 0)" fill="#333"/><path d="M91.09,228.69a16,16,0,0,1-11.35-27.3C138.65,142.25,220.57,116.18,306,133a16,16,0,0,1-6.17,31.42c-75-14.78-146.09,8-197.44,59.59a15.91,15.91,0,0,1-11.31,4.71Z" transform="translate(0 0)" fill="#333"/><path d="M363.52,286.29a16,16,0,0,1-11.31-4.67,142.72,142.72,0,0,0-31.46-23.81,16,16,0,1,1,15.59-28,176.51,176.51,0,0,1,38.51,29.09,16,16,0,0,1-11.33,27.35Z" transform="translate(0 0)" fill="#333"/><path d="M148.48,286.29A16,16,0,0,1,137.17,259c22.87-22.85,51.05-38.45,81.5-45.06a16,16,0,1,1,6.84,31.25c-24.46,5.34-47.18,17.94-65.7,36.44a16,16,0,0,1-11.33,4.69Z" transform="translate(0 0)" fill="#333"/><path d="M256,384a46.2,46.2,0,0,1-44.71-34.33,16,16,0,1,1,31-8.12A14,14,0,0,0,256,352a14.53,14.53,0,0,0,14.51-14.51,14,14,0,0,0-10.46-13.76,16,16,0,0,1,8.13-31A46.41,46.41,0,0,1,256,384Z" transform="translate(0 0)" fill="#333"/><path d="M86.34,441.66A16,16,0,0,1,75,414.34L414.36,75A16,16,0,0,1,437,97.66L97.64,437a15.84,15.84,0,0,1-11.3,4.69Z" transform="translate(0 0)" fill="#333"/></svg>