<svg height="512pt" viewBox="-15 0 512 512" width="512pt" xmlns="http://www.w3.org/2000/svg"><path d="m265 512h-220c-24.8125 0-45-20.1875-45-45v-422c0-24.8125 20.1875-45 45-45h220c24.8125 0 45 20.1875 45 45v422c0 24.8125-20.1875 45-45 45zm0 0" fill="#4bbaed"/><path d="m265 0h-110v512h110c24.8125 0 45-20.1875 45-45v-422c0-24.8125-20.1875-45-45-45zm0 0" fill="#388cb3"/><path d="m77 422h156v30h-156zm0 0" fill="#388cb3"/><path d="m186 60h61v30h-61zm0 0" fill="#132f3b"/><path d="m93 75c0 8.285156-6.714844 15-15 15s-15-6.714844-15-15 6.714844-15 15-15 15 6.714844 15 15zm0 0" fill="#265d77"/><path d="m153 75c0 8.285156-6.714844 15-15 15s-15-6.714844-15-15 6.714844-15 15-15 15 6.714844 15 15zm0 0" fill="#265d77"/><path d="m481 375h-372v-228h372zm0 0" fill="#ffe565"/><path d="m155 422h78v30h-78zm0 0" fill="#265d77"/><path d="m295 147h186v228h-186zm0 0" fill="#ffd400"/><path d="m295 308.683594-186-138.140625v-23.542969h372v23.542969zm0 0" fill="#ffab2d"/><path d="m295 147v161.683594l186-138.140625v-23.542969zm0 0" fill="#f90"/></svg>