<svg height="511pt" viewBox="-13 1 511 511.99992" width="511pt" xmlns="http://www.w3.org/2000/svg"><path d="m292.273438 289.234375v199.515625l-25.242188 8.414062c-3.988281 1.328126-6.140625 5.640626-4.8125 9.628907s5.640625 6.144531 9.628906 4.8125l30.441406-10.148438c3.109376-1.035156 5.207032-3.945312 5.207032-7.21875v-205.003906zm0 0" fill="#ccc"/><path d="m371.433594 285.175781v199.515625l25.238281 8.414063c3.988281 1.328125 6.144531 5.636719 4.8125 9.625-1.328125 3.988281-5.640625 6.144531-9.625 4.816406l-30.445313-10.148437c-3.109374-1.035157-5.203124-3.945313-5.203124-7.222657v-205zm0 0" fill="#b3b3b3"/><path d="m259.289062 180.136719c-46.164062 0-83.726562-37.558594-83.726562-83.726563 0-4.203125-3.40625-7.609375-7.609375-7.609375-4.207031 0-7.613281 3.40625-7.613281 7.609375 0 54.5625 44.390625 98.953125 98.949218 98.953125h71.039063v-15.226562zm0 0" fill="#e18f4e"/><path d="m462.261719 180.136719h-131.933594v15.226562h131.933594c4.199219 0 7.613281 3.410157 7.613281 7.609375 0 4.203125 3.40625 7.613282 7.609375 7.613282 4.207031 0 7.613281-3.410157 7.613281-7.613282 0-12.589844-10.242187-22.835937-22.835937-22.835937zm0 0" fill="#c27749"/><path d="m107.0625 190.285156h60.890625v30.449219h-60.890625zm0 0" fill="#4f4f4f"/><path d="m.5 152.230469v22.832031h30.445312l30.445313 30.449219v-60.894531zm0 0" fill="#353535"/><path d="m107.0625 175.0625-20.300781 30.449219 20.300781 30.445312h30.445312v-60.894531zm0 0" fill="#353535"/><path d="m30.945312 175.0625h76.117188v60.894531h-76.117188zm0 0" fill="#4f4f4f"/><path d="m167.953125 235.957031c-4.207031 0-7.613281-3.40625-7.613281-7.613281v-45.667969c0-4.203125 3.40625-7.613281 7.613281-7.613281 4.203125 0 7.609375 3.410156 7.609375 7.613281v45.667969c0 4.207031-3.40625 7.613281-7.609375 7.613281zm0 0" fill="#353535"/><path d="m107.0625 137.007812h-106.5625v15.222657h106.5625c4.203125 0 7.609375-3.40625 7.609375-7.613281 0-4.203126-3.40625-7.609376-7.609375-7.609376zm0 0" fill="#4f4f4f"/><g fill="#353535"><path d="m47.796875 296.847656-39.546875 206.105469c-.792969 4.128906 1.910156 8.117187 6.039062 8.910156 4.125.792969 8.117188-1.914062 8.910157-6.042969l42.046875-219.121093zm0 0"/><path d="m160.203125 502.953125-39.550781-206.105469-17.445313-10.148437 42.046875 219.121093c.789063 4.128907 4.785156 6.835938 8.90625 6.039063 4.128906-.789063 6.835938-4.777344 6.042969-8.90625zm0 0"/><path d="m35.636719 393.007812h97.179687v15.222657h-97.179687zm0 0"/><path d="m76.613281 286.699219v217.6875c0 4.207031 3.410157 7.613281 7.613281 7.613281 4.203126 0 7.609376-3.40625 7.609376-7.613281v-217.6875zm0 0"/></g><path d="m330.332031 411.019531h25.875l19.792969-15.222656v-91.335937h-76.113281zm0 0" fill="#974d34"/><path d="m330.332031 411.019531h-22.835937l-22.835938-15.222656v-91.335937h45.671875zm0 0" fill="#b25b3d"/><path d="m315.109375 243.566406 15.222656 91.339844c25.222657 0 45.667969-20.449219 45.667969-45.671875zm0 0" fill="#b3b3b3"/><path d="m284.660156 289.234375c0 25.222656 20.449219 45.671875 45.671875 45.671875v-91.339844zm0 0" fill="#ccc"/><path d="m370.925781 167.515625h-32.984375l-27.90625 60.855469 20.296875 60.855468 45.667969.007813zm0 0" fill="#ebebeb"/><path d="m330.328125 177.664062-7.609375-10.148437h-15.222656l-22.835938 121.71875 45.671875-.011719zm0 0" fill="#fff"/><path d="m307.496094 263.863281-38.058594-45.667969v192.824219h38.058594zm0 0" fill="#e18f4e"/><path d="m279.59375 167.515625c-11.210938 0-20.296875 9.023437-20.296875 20.234375l-.007813 76.113281h48.207032v-96.347656zm0 0" fill="#ffcb63"/><path d="m356.207031 263.863281v147.15625h35.015625v-192.824219zm0 0" fill="#c27749"/><path d="m401.363281 187.75c0-11.210938-9.085937-20.234375-20.296875-20.234375h-24.859375v96.347656h45.15625zm0 0" fill="#e18f4e"/><path d="m183.5625 0c-6.265625 0-11.863281 2.824219-15.609375 7.265625l-12.007813 29.351563 12.007813 29.347656s36.027344-19.1875 36.027344-45.574219c0-11.261719-9.140625-20.390625-20.417969-20.390625zm0 0" fill="#cf301b"/><path d="m152.339844 0c-11.273438 0-20.414063 9.128906-20.414063 20.390625 0 26.386719 36.027344 45.574219 36.027344 45.574219v-58.699219c-3.746094-4.441406-9.347656-7.265625-15.613281-7.265625zm0 0" fill="#ff4128"/><path d="m330.328125 45.734375v91.335937c25.222656 0 45.671875-20.445312 45.671875-45.667968s-20.449219-45.667969-45.671875-45.667969zm0 0" fill="#ff8d7e"/><path d="m345.554688 91.402344c0-25.222656-6.816407-45.667969-15.226563-45.667969-25.222656 0-45.667969 20.445313-45.667969 45.667969s20.445313 45.667968 45.667969 45.667968c8.410156 0 15.226563-20.445312 15.226563-45.667968zm0 0" fill="#ffb4a9"/><path d="m439.429688 121.785156h15.222656v96.410156h-15.222656zm0 0" fill="#353535"/><path d="m462.261719 225.808594h-15.222657c-4.203124 0-7.609374-3.410156-7.609374-7.613282 0-4.203124 3.40625-7.609374 7.609374-7.609374h15.222657c4.199219 0 7.613281-3.414063 7.613281-7.613282 0-4.203125 3.40625-7.609375 7.609375-7.609375 4.207031 0 7.613281 3.40625 7.613281 7.609375 0 12.589844-10.242187 22.835938-22.835937 22.835938zm0 0" fill="#c27749"/><path d="m322.71875 167.515625v91.261719c0 4.207031 3.40625 7.613281 7.609375 7.613281 4.207031 0 7.613281-3.40625 7.613281-7.613281v-91.261719zm0 0" fill="#353535"/><path d="m447.039062 81.1875c-8.40625 0-15.222656 6.816406-15.222656 15.222656v30.449219c0 8.40625 6.816406 15.222656 15.222656 15.222656s15.222657-6.816406 15.222657-15.222656v-30.449219c0-8.40625-6.8125-15.222656-15.222657-15.222656zm0 0" fill="#4f4f4f"/><path d="m53.640625 266.402344-5.84375 30.445312h72.855469l-5.84375-30.445312zm0 0" fill="#4f4f4f"/></svg>