<svg id="eee0a809-7e3d-47a5-b469-fd092a456d82" data-name="Capa 1" xmlns="http://www.w3.org/2000/svg" viewBox="0 0 512 370">
<path style="opacity:0.898" fill="#febb49" d="M 69.5,52.5 C 70.9778,52.238 72.3112,52.5713 73.5,53.5C 74.6433,58.1067 76.6433,62.2734 79.5,66C 83.2211,68.5272 87.2211,70.5272 91.5,72C 92.7472,73.4936 92.7472,74.9936 91.5,76.5C 81.8333,78.8333 75.8333,84.8333 73.5,94.5C 71.8333,97.1667 70.1667,97.1667 68.5,94.5C 66.1934,84.86 60.1934,78.86 50.5,76.5C 49.2528,74.9936 49.2528,73.4936 50.5,72C 55.0285,70.4861 59.1952,68.3194 63,65.5C 65.4536,61.3032 67.6202,56.9699 69.5,52.5 Z"/>
<path style="opacity:0.982" fill="#ab5436" d="M 121.5,76.5 C 200.834,76.3333 280.167,76.5 359.5,77C 360.333,77.8333 361.167,78.6667 362,79.5C 362.667,123.833 362.667,168.167 362,212.5C 361.167,213.333 360.333,214.167 359.5,215C 280.167,215.667 200.833,215.667 121.5,215C 120.107,213.829 119.273,212.329 119,210.5C 118.333,167.5 118.333,124.5 119,81.5C 119.366,79.5483 120.199,77.8816 121.5,76.5 Z"/>
<path style="opacity:1" fill="#a2d3e7" d="M 158.5,98.5 C 158.169,122.672 158.502,146.672 159.5,170.5C 159.167,171.167 158.833,171.833 158.5,172.5C 153.598,179.291 148.932,186.291 144.5,193.5C 143.504,193.586 142.671,193.252 142,192.5C 141.333,161.5 141.333,130.5 142,99.5C 147.407,98.5268 152.907,98.1934 158.5,98.5 Z"/>
<path style="opacity:1" fill="#b0e7fd" d="M 158.5,98.5 C 218.501,98.3333 278.501,98.5 338.5,99C 339,99.5 339.5,100 340,100.5C 340.667,130.833 340.667,161.167 340,191.5C 339.184,192.823 338.017,193.489 336.5,193.5C 325.97,175.969 314.636,158.969 302.5,142.5C 294.775,153.874 287.108,165.207 279.5,176.5C 266.526,157.184 253.526,137.851 240.5,118.5C 239.186,119.313 238.019,120.313 237,121.5C 225.49,139.195 213.99,156.862 202.5,174.5C 194.597,163.704 186.93,152.704 179.5,141.5C 172.096,150.636 165.429,160.303 159.5,170.5C 158.502,146.672 158.169,122.672 158.5,98.5 Z"/>
<path style="opacity:0.925" fill="#febb49" d="M 450.5,99.5 C 452.17,99.7512 453.67,100.418 455,101.5C 457.935,114.935 466.101,123.268 479.5,126.5C 480.833,128.167 480.833,129.833 479.5,131.5C 473.278,133.565 467.611,136.565 462.5,140.5C 459.145,145.38 456.645,150.713 455,156.5C 453,159.167 451,159.167 449,156.5C 447.173,149.341 443.673,143.174 438.5,138C 433.997,135.61 429.331,133.61 424.5,132C 421.833,130 421.833,128 424.5,126C 431.094,124.143 436.927,120.977 442,116.5C 444.743,110.759 447.576,105.093 450.5,99.5 Z"/>
<path style="opacity:1" fill="#3eaf91" d="M 279.5,176.5 C 282.918,182.337 286.584,188.004 290.5,193.5C 264.833,193.5 239.167,193.5 213.5,193.5C 209.581,187.33 205.914,180.997 202.5,174.5C 213.99,156.862 225.49,139.195 237,121.5C 238.019,120.313 239.186,119.313 240.5,118.5C 253.526,137.851 266.526,157.184 279.5,176.5 Z"/>
<path style="opacity:0.987" fill="#e9923a" d="M 25.5,130.5 C 24.3117,131.364 23.1451,132.364 22,133.5C 21.3333,166.167 21.3333,198.833 22,231.5C 23.3968,233.07 24.8968,234.404 26.5,235.5C 18.8261,235.666 11.1594,235.5 3.5,235C 2.01608,234.338 0.682751,233.504 -0.5,232.5C -0.5,199.167 -0.5,165.833 -0.5,132.5C 0.473444,132.013 1.47344,131.513 2.5,131C 10.1594,130.5 17.8261,130.334 25.5,130.5 Z"/>
<path style="opacity:0.987" fill="#fe9e3c" d="M 25.5,130.5 C 43.8364,130.333 62.1697,130.5 80.5,131C 81.6667,131.5 82.5,132.333 83,133.5C 83.6667,166.5 83.6667,199.5 83,232.5C 82.0975,233.701 80.9308,234.535 79.5,235C 69.5056,235.5 59.5056,235.666 49.5,235.5C 44.1667,234.167 38.8333,234.167 33.5,235.5C 31.1667,235.5 28.8333,235.5 26.5,235.5C 24.8968,234.404 23.3968,233.07 22,231.5C 21.3333,198.833 21.3333,166.167 22,133.5C 23.1451,132.364 24.3117,131.364 25.5,130.5 Z"/>
<path style="opacity:1" fill="#86d5b5" d="M 202.5,174.5 C 205.914,180.997 209.581,187.33 213.5,193.5C 195.167,193.5 176.833,193.5 158.5,193.5C 158.5,186.5 158.5,179.5 158.5,172.5C 158.833,171.833 159.167,171.167 159.5,170.5C 165.429,160.303 172.096,150.636 179.5,141.5C 186.93,152.704 194.597,163.704 202.5,174.5 Z"/>
<path style="opacity:1" fill="#86d5b5" d="M 336.5,193.5 C 321.167,193.5 305.833,193.5 290.5,193.5C 286.584,188.004 282.918,182.337 279.5,176.5C 287.108,165.207 294.775,153.874 302.5,142.5C 314.636,158.969 325.97,175.969 336.5,193.5 Z"/>
<path style="opacity:1" fill="#7cc2a7" d="M 158.5,172.5 C 158.5,179.5 158.5,186.5 158.5,193.5C 153.833,193.5 149.167,193.5 144.5,193.5C 148.932,186.291 153.598,179.291 158.5,172.5 Z"/>
<path style="opacity:0.913" fill="#febb49" d="M 412.5,215.5 C 414.39,215.297 415.89,215.963 417,217.5C 419.5,229.333 426.667,236.5 438.5,239C 441.167,241 441.167,243 438.5,245C 426.667,247.5 419.5,254.667 417,266.5C 415,269.167 413,269.167 411,266.5C 408.5,254.667 401.333,247.5 389.5,245C 386.833,243 386.833,241 389.5,239C 395.998,237.503 401.498,234.337 406,229.5C 407.924,224.656 410.09,219.99 412.5,215.5 Z"/>
<path style="opacity:0.938" fill="#08375d" d="M 49.5,235.5 C 49.5,301.5 49.5,367.5 49.5,433.5C 49.1667,433.5 48.8333,433.5 48.5,433.5C 43.5,433.5 38.5,433.5 33.5,433.5C 33.5,367.5 33.5,301.5 33.5,235.5C 38.8333,234.167 44.1667,234.167 49.5,235.5 Z"/>
<path style="opacity:0.989" fill="#e9ab46" d="M 133.5,267.5 C 129.684,268.51 126.851,270.843 125,274.5C 124.5,309.165 124.333,343.832 124.5,378.5C 121.833,378.5 119.167,378.5 116.5,378.5C 116.5,396.167 116.5,413.833 116.5,431.5C 115.668,403.336 115.168,375.003 115,346.5C 113.149,342.843 110.316,340.51 106.5,339.5C 106.333,317.497 106.5,295.497 107,273.5C 108.251,270.619 110.417,268.786 113.5,268C 120.158,267.5 126.825,267.334 133.5,267.5 Z"/>
<path style="opacity:0.995" fill="#feba4a" d="M 133.5,267.5 C 166.5,267.5 199.5,267.5 232.5,267.5C 232.5,304.5 232.5,341.5 232.5,378.5C 223.167,378.5 213.833,378.5 204.5,378.5C 204.667,362.163 204.5,345.83 204,329.5C 203.167,328 202,326.833 200.5,326C 183.833,325.333 167.167,325.333 150.5,326C 149.667,326.833 148.833,327.667 148,328.5C 147.5,345.163 147.333,361.83 147.5,378.5C 139.833,378.5 132.167,378.5 124.5,378.5C 124.333,343.832 124.5,309.165 125,274.5C 126.851,270.843 129.684,268.51 133.5,267.5 Z"/>
<path style="opacity:0.99" fill="#feba4a" d="M 248.5,267.5 C 288.168,267.333 327.835,267.5 367.5,268C 371.77,269.27 374.27,272.104 375,276.5C 375.5,297.497 375.667,318.497 375.5,339.5C 371.165,340.251 367.998,342.584 366,346.5C 365.5,357.161 365.333,367.828 365.5,378.5C 356.5,378.5 347.5,378.5 338.5,378.5C 338.971,361.405 338.471,344.405 337,327.5C 336.25,326.874 335.416,326.374 334.5,326C 317.833,325.333 301.167,325.333 284.5,326C 283.667,326.833 282.833,327.667 282,328.5C 281.5,345.163 281.333,361.83 281.5,378.5C 270.5,378.5 259.5,378.5 248.5,378.5C 248.5,341.5 248.5,304.5 248.5,267.5 Z"/>
<path style="opacity:0.986" fill="#fe9f3d" d="M 232.5,267.5 C 237.833,267.5 243.167,267.5 248.5,267.5C 248.5,304.5 248.5,341.5 248.5,378.5C 259.5,378.5 270.5,378.5 281.5,378.5C 300.5,378.5 319.5,378.5 338.5,378.5C 347.5,378.5 356.5,378.5 365.5,378.5C 365.83,396.674 365.497,414.674 364.5,432.5C 281.833,432.5 199.167,432.5 116.5,432.5C 116.5,432.167 116.5,431.833 116.5,431.5C 116.5,413.833 116.5,396.167 116.5,378.5C 119.167,378.5 121.833,378.5 124.5,378.5C 132.167,378.5 139.833,378.5 147.5,378.5C 166.5,378.5 185.5,378.5 204.5,378.5C 213.833,378.5 223.167,378.5 232.5,378.5C 232.5,341.5 232.5,304.5 232.5,267.5 Z"/>
<path style="opacity:0.981" fill="#63c3ea" d="M 497.5,341.5 C 473.167,341.5 448.833,341.5 424.5,341.5C 421.614,335.902 420.78,329.902 422,323.5C 422.273,321.671 423.107,320.171 424.5,319C 449.167,318.333 473.833,318.333 498.5,319C 499,319.5 499.5,320 500,320.5C 500.667,326.5 500.667,332.5 500,338.5C 499.302,339.691 498.469,340.691 497.5,341.5 Z"/>
<path style="opacity:1" fill="#43af8f" d="M 204.5,378.5 C 185.5,378.5 166.5,378.5 147.5,378.5C 147.333,361.83 147.5,345.163 148,328.5C 148.833,327.667 149.667,326.833 150.5,326C 167.167,325.333 183.833,325.333 200.5,326C 202,326.833 203.167,328 204,329.5C 204.5,345.83 204.667,362.163 204.5,378.5 Z"/>
<path style="opacity:1" fill="#42af90" d="M 338.5,378.5 C 319.5,378.5 300.5,378.5 281.5,378.5C 281.333,361.83 281.5,345.163 282,328.5C 282.833,327.667 283.667,326.833 284.5,326C 301.167,325.333 317.833,325.333 334.5,326C 335.416,326.374 336.25,326.874 337,327.5C 338.471,344.405 338.971,361.405 338.5,378.5 Z"/>
<path style="opacity:0.982" fill="#e5b864" d="M 100.5,339.5 C 96.0854,341.42 93.2521,344.753 92,349.5C 91.3333,384.5 91.3333,419.5 92,454.5C 93.3756,455.705 94.5423,457.038 95.5,458.5C 88.1667,458.5 80.8333,458.5 73.5,458.5C 72.5423,457.038 71.3756,455.705 70,454.5C 69.5004,447.508 69.3337,440.508 69.5,433.5C 69.3334,404.498 69.5,375.498 70,346.5C 71.587,343.244 74.087,341.077 77.5,340C 85.1594,339.5 92.8261,339.334 100.5,339.5 Z"/>
<path style="opacity:0.991" fill="#fbc86b" d="M 100.5,339.5 C 102.5,339.5 104.5,339.5 106.5,339.5C 110.316,340.51 113.149,342.843 115,346.5C 115.168,375.003 115.668,403.336 116.5,431.5C 116.5,431.833 116.5,432.167 116.5,432.5C 116.666,440.174 116.5,447.841 116,455.5C 115.167,456.333 114.333,457.167 113.5,458C 107.509,458.499 101.509,458.666 95.5,458.5C 94.5423,457.038 93.3756,455.705 92,454.5C 91.3333,419.5 91.3333,384.5 92,349.5C 93.2521,344.753 96.0854,341.42 100.5,339.5 Z"/>
<path style="opacity:0.993" fill="#e6b864" d="M 375.5,339.5 C 380.833,339.5 386.167,339.5 391.5,339.5C 387.684,340.51 384.851,342.843 383,346.5C 382.333,382.833 382.333,419.167 383,455.5C 384.045,456.373 384.878,457.373 385.5,458.5C 379.491,458.666 373.491,458.499 367.5,458C 367,457.5 366.5,457 366,456.5C 364.599,448.585 364.099,440.585 364.5,432.5C 365.497,414.674 365.83,396.674 365.5,378.5C 365.333,367.828 365.5,357.161 366,346.5C 367.998,342.584 371.165,340.251 375.5,339.5 Z"/>
<path style="opacity:0.992" fill="#fbc86b" d="M 391.5,339.5 C 408.586,337.255 415.252,344.588 411.5,361.5C 411.5,377.167 411.5,392.833 411.5,408.5C 411.5,415.833 411.5,423.167 411.5,430.5C 411.5,439.167 411.5,447.833 411.5,456.5C 410.527,456.987 409.527,457.487 408.5,458C 400.841,458.5 393.174,458.666 385.5,458.5C 384.878,457.373 384.045,456.373 383,455.5C 382.333,419.167 382.333,382.833 383,346.5C 384.851,342.843 387.684,340.51 391.5,339.5 Z"/>
<path style="opacity:0.996" fill="#9ce7ff" d="M 424.5,341.5 C 448.833,341.5 473.167,341.5 497.5,341.5C 498.458,341.953 499.292,342.619 500,343.5C 500.499,348.823 500.666,354.156 500.5,359.5C 474.167,359.5 447.833,359.5 421.5,359.5C 421.334,354.821 421.501,350.155 422,345.5C 422.608,343.934 423.442,342.6 424.5,341.5 Z"/>
<path style="opacity:0.997" fill="#ab5537" d="M 421.5,359.5 C 447.833,359.5 474.167,359.5 500.5,359.5C 504.414,359.111 508.08,359.778 511.5,361.5C 511.5,377.167 511.5,392.833 511.5,408.5C 478.167,408.5 444.833,408.5 411.5,408.5C 411.5,392.833 411.5,377.167 411.5,361.5C 414.505,359.701 417.838,359.034 421.5,359.5 Z"/>
<path style="opacity:1" fill="#c97a50" d="M 449.5,379.5 C 458.25,379.09 466.916,379.59 475.5,381C 480.997,386.033 480.664,390.7 474.5,395C 465.833,395.667 457.167,395.667 448.5,395C 444.139,392.774 442.639,389.274 444,384.5C 445.406,382.256 447.239,380.59 449.5,379.5 Z"/>
<path style="opacity:0.98" fill="#cb7c52" d="M 411.5,408.5 C 444.833,408.5 478.167,408.5 511.5,408.5C 511.5,415.833 511.5,423.167 511.5,430.5C 504.412,430.205 497.412,430.538 490.5,431.5C 470.833,431.5 451.167,431.5 431.5,431.5C 425.021,430.509 418.354,430.176 411.5,430.5C 411.5,423.167 411.5,415.833 411.5,408.5 Z"/>
<path style="opacity:0.967" fill="#feae67" d="M 411.5,430.5 C 418.354,430.176 425.021,430.509 431.5,431.5C 431.803,439.889 431.47,448.222 430.5,456.5C 429.975,457.192 429.308,457.692 428.5,458C 423.5,458.667 418.5,458.667 413.5,458C 412.956,457.283 412.289,456.783 411.5,456.5C 411.5,447.833 411.5,439.167 411.5,430.5 Z"/>
<path style="opacity:0.942" fill="#feae67" d="M 511.5,430.5 C 511.5,439.167 511.5,447.833 511.5,456.5C 505.71,458.521 499.71,459.021 493.5,458C 493,457.5 492.5,457 492,456.5C 490.594,448.251 490.094,439.917 490.5,431.5C 497.412,430.538 504.412,430.205 511.5,430.5 Z"/>
<path style="opacity:0.94" fill="#5cb2d5" d="M 33.5,433.5 C 38.5,433.5 43.5,433.5 48.5,433.5C 42.7661,434.186 36.9328,434.852 31,435.5C 29.4185,441.723 29.0852,448.056 30,454.5C 30.6897,456.35 31.8564,457.684 33.5,458.5C 25.4931,458.666 17.4931,458.5 9.5,458C 8.29857,457.097 7.46524,455.931 7,454.5C 6.33333,448.833 6.33333,443.167 7,437.5C 7.46524,436.069 8.29857,434.903 9.5,434C 17.4931,433.5 25.4931,433.334 33.5,433.5 Z"/>
<path style="opacity:0.978" fill="#63c2e9" d="M 48.5,433.5 C 48.8333,433.5 49.1667,433.5 49.5,433.5C 56.1667,433.5 62.8333,433.5 69.5,433.5C 69.3337,440.508 69.5004,447.508 70,454.5C 71.3756,455.705 72.5423,457.038 73.5,458.5C 60.1667,458.5 46.8333,458.5 33.5,458.5C 31.8564,457.684 30.6897,456.35 30,454.5C 29.0852,448.056 29.4185,441.723 31,435.5C 36.9328,434.852 42.7661,434.186 48.5,433.5 Z"/>
</svg>