<?xml version="1.0" encoding="utf-8"?>
<!-- Generator: Adobe Illustrator 23.0.3, SVG Export Plug-In . SVG Version: 6.00 Build 0)  -->
<svg version="1.1" id="Layer_1" xmlns="http://www.w3.org/2000/svg" xmlns:xlink="http://www.w3.org/1999/xlink" x="0px" y="0px"
	 viewBox="0 0 461.3 536" style="enable-background:new 0 0 461.3 536;" xml:space="preserve">
<style type="text/css">
	.st0{fill:#17171C;}
</style>
<g id="Layer_1_copy">
	<g>
		<polygon class="st0" points="94.4,226.7 82.6,215.4 66.1,232.5 94.8,260.1 136.4,217.8 119.4,201.1 		"/>
		<polygon class="st0" points="94.4,312.2 82.6,300.9 66.1,318.1 94.8,345.7 136.4,303.4 119.4,286.7 		"/>
		<polygon class="st0" points="94.4,397.5 82.6,386.2 66.1,403.3 94.8,430.9 136.4,388.6 119.4,371.9 		"/>
		<path class="st0" d="M410.4,269.6v-128L283.7,0h-215C30.8,0,0,30.8,0,68.7v374.7C0,481.2,30.8,512,68.7,512h157.7
			c23.7,15.2,51.9,24,82.2,24c84.2,0,152.7-68.5,152.7-152.7C461.3,338.2,441.6,297.6,410.4,269.6z M293.6,64.5l59,66h-59V64.5z
			 M187.5,476.3H68.7c-18.2,0-33-14.8-33-33V68.6c0-18.2,14.8-33,33-33H258v130.5h116.8v79.5c-13-6.3-27.1-10.8-41.8-13.1v-24H166.7
			v35.7h78.8c-24.4,11.1-45.3,28.4-60.8,49.9h-18v32.7c-7,17.5-10.8,36.6-10.8,56.5C155.8,418.3,167.7,450.6,187.5,476.3z
			 M226.2,384.4l-17-27.4c-2.9-4.7,1.3-10.5,6.6-9.2l10.5,2.4c12-34.4,44.9-58.6,82.7-58.6c36,0,67.9,21.5,81.3,54.9
			c2.4,6.1-0.5,13.1-6.6,15.5s-13.1-0.5-15.5-6.6c-9.8-24.2-33-39.9-59.1-39.9c-26.6,0-49.7,16.5-59.2,40.1l10.5,2.4
			c5.3,1.2,6.5,8.3,1.8,11.2l-27.4,17.1C231.9,388.2,228.1,387.3,226.2,384.4z M400.6,417.3l-10.2-2.6c-13.3,32.3-44.9,54-80.9,54
			c-0.5,0-1.1,0-1.6,0c-34.5-0.6-65.6-21.5-79-53.3c-2.6-6.1,0.2-13.1,6.3-15.7s13.1,0.2,15.7,6.3c9.8,23.1,32.4,38.4,57.5,38.8
			c25.5,0.5,48.1-14,58.6-36.1l-10.6-2.7c-5.4-1.3-6.4-8.5-1.7-11.3l27.7-16.6c2.9-1.7,6.7-0.8,8.5,2.1l16.6,27.7
			C410.3,412.9,406,418.6,400.6,417.3z"/>
	</g>
</g>
</svg>
