<svg id="b2802f06-7ee2-4c2e-b815-cf19c5d2f986" data-name="Capa 1" xmlns="http://www.w3.org/2000/svg" viewBox="0 0 512 311.94">
  <path d="M512,113.6V398.41a13.69,13.69,0,0,1-4.37,9.9,6.56,6.56,0,0,1-1.09.88,13.25,13.25,0,0,1-8.11,2.78H13.57a13.25,13.25,0,0,1-8.11-2.78,6.56,6.56,0,0,1-1.09-.88A13.69,13.69,0,0,1,0,398.41V113.6a13.89,13.89,0,0,1,2.37-7.73,17.26,17.26,0,0,1,1.49-1.7,13.29,13.29,0,0,1,9.7-4.14H498.43a13.25,13.25,0,0,1,9.69,4.14,17.26,17.26,0,0,1,1.49,1.7A13.83,13.83,0,0,1,512,113.6Z" transform="translate(0 -100.03)" fill="#9f7740" />
  <path d="M509.63,105.87c-16,15.32-32.28,30.45-48.28,45.77Q428.28,182.45,395,212.87q-21.56,19.73-43.26,39.26c-3.53,3.19-7.05,6.38-10.64,9.56q-40,36-80.36,71.54l-4.75,4.2-4.74-4.2c-26.79-23.72-53.64-47.54-80.29-71.54-3.6-3.12-7.19-6.37-10.72-9.56Q138.5,232.6,117,212.87q-33.36-30.41-66.32-61.23c-16-15.33-32.28-30.45-48.28-45.77a17.26,17.26,0,0,1,1.49-1.7c17.23,13.83,34.25,28,51.4,41.91Q90,174.83,124.31,204c44.28,37.46,88,75.55,131.7,113.73,43.67-38.25,87.41-76.3,131.69-113.73q34.28-29.19,69-57.91c17.16-13.9,34.18-28.1,51.41-41.91A18.49,18.49,0,0,1,509.63,105.87Z" transform="translate(0 -100.03)" fill="#936531" />
  <path d="M175.37,257.76,171,261.7,5.44,409.19a6.56,6.56,0,0,1-1.09-.88l155.9-156.17,5.36-5.36Z" transform="translate(0 -100.03)" fill="#936531" />
  <path d="M507.63,408.31a6.18,6.18,0,0,1-1.09.88L341.11,261.7l-4.48-3.94,9.77-11,5.36,5.36Z" transform="translate(0 -100.03)" fill="#936531" />
  <path d="M256,100A156,156,0,1,0,412,256,156,156,0,0,0,256,100ZM126.93,256c0-71.17,57.91-129.08,129.08-129.08A128.46,128.46,0,0,1,338.7,157L157,338.69A128.46,128.46,0,0,1,126.93,256ZM256,385.08a128.34,128.34,0,0,1-79.7-27.67L357.43,176.29A128.44,128.44,0,0,1,385.09,256C385.09,327.17,327.18,385.08,256,385.08Z" transform="translate(0 -100.03)" fill="#dbdb31" />
</svg>