<svg id="Capa_1" enable-background="new 0 0 512 512" height="512" viewBox="0 0 512 512" width="512" xmlns="http://www.w3.org/2000/svg"><path d="m482 30h-226-221.626l-34.374 30v317c0 8.284 6.716 15 15 15h241 241c8.284 0 15-6.716 15-15v-317z" fill="#fff5f5"/><path d="m512 377v-317l-30-30h-226v362h241c8.284 0 15-6.716 15-15z" fill="#efe2dd"/><path d="m497 0h-106l-30 30 30 30h121v-45c0-8.286-6.716-15-15-15z" fill="#57d9d4"/><path d="m256 0h-241c-8.284 0-15 6.714-15 15v45h256 135v-60z" fill="#596c76"/><path d="m256 0h135v60h-135z" fill="#465a61"/><path d="m436 122h-180-180c-8.291 0-15 6.709-15 15v75l30 15h165 165l30-15v-75c0-8.291-6.709-15-15-15zm-315 60h-30v-30h30zm60 0h-30v-30h30zm60 0h-30v-30h30zm60 0h-30v-30h30zm60 0h-30v-30h30zm60 0h-30v-30h30z" fill="#596c76"/><path d="m451 212v-75c0-8.291-6.709-15-15-15h-180v105h165zm-150-30h-30v-30h30zm60 0h-30v-30h30zm30-30h30v30h-30z" fill="#465a61"/><path d="m421 407h-165-165l-30 15v75c0 8.291 6.709 15 15 15h180 180c8.291 0 15-6.709 15-15v-75zm-300 75h-30v-30h30zm60 0h-30v-30h30zm60 0h-30v-30h30zm60 0h-30v-30h30zm60 0h-30v-30h30zm60 0h-30v-30h30z" fill="#596c76"/><path d="m451 497v-75l-30-15h-165v105h180c8.291 0 15-6.709 15-15zm-150-15h-30v-30h30zm60 0h-30v-30h30zm60 0h-30v-30h30z" fill="#465a61"/><path d="m256 212h-195v210h195 195v-210z" fill="#ff7c48"/><path d="m256 212h195v210h-195z" fill="#ff415b"/><path d="m324.32 304.52-68.32-45.548-21.68-14.453c-4.57-3.062-10.518-3.354-15.396-.747s-7.924 7.691-7.924 13.228v120c0 5.537 3.047 10.62 7.925 13.228 4.81 2.58 10.745 2.353 15.396-.747l21.679-14.453 68.32-45.547c4.175-2.783 6.68-7.471 6.68-12.48s-2.505-9.698-6.68-12.481z" fill="#fff5f5"/><path d="m331 317c0-5.01-2.505-9.697-6.68-12.48l-68.32-45.548v116.056l68.32-45.547c4.175-2.784 6.68-7.471 6.68-12.481z" fill="#efe2dd"/></svg>