<svg id="bfc3b547-b518-4221-a81a-857fcf5e10b7" data-name="Capa 1" xmlns="http://www.w3.org/2000/svg" viewBox="0 0 512 512"><title>video2</title><path d="M512,270V497a15,15,0,0,1-15,15H15A15,15,0,0,1,0,497V270Z" fill="#474f54"/><path d="M512,270V497a15,15,0,0,1-15,15H256V270Z" fill="#32393f"/><path d="M315.22,358.61,283.59,354l-14.14-28.66a15,15,0,0,0-26.9,0L228.41,354l-31.63,4.59a15,15,0,0,0-8.31,25.59l22.88,22.31L206,438a15,15,0,0,0,21.76,15.82L256,439l28.29,14.87A15,15,0,0,0,306.05,438l-5.4-31.49,22.88-22.31A15,15,0,0,0,315.22,358.61Z" fill="#fed843"/><path d="M323.53,384.2l-22.88,22.31,5.4,31.49a15,15,0,0,1-21.76,15.82L256,439V317a14.84,14.84,0,0,1,13.45,8.35L283.59,354l31.63,4.59A15,15,0,0,1,323.53,384.2Z" fill="#ffb64c"/><path d="M312.57,41.14,267,95.4,250.07,152l115.59-32.25L409.94,66.4,428.15,8.89Z" fill="#32393f"/><path d="M15,124.18v93.44l113.65-31.71,9.93-14.68,34.21-50.59,9.75-43.21Z" fill="#474f54"/><path d="M182.54,77.43,120,188.31l130-36.29,62.5-110.88Z" fill="#efe2dd"/><path d="M225.88,65.33,250.07,152l62.5-110.88Z" fill="#e1d3ce"/><path d="M476.49,11A15,15,0,0,0,458,.56L428.15,8.89,365.66,119.77,482.2,87.24a15,15,0,0,0,10.42-18.48Z" fill="#e1d3ce"/><path d="M45.5,180l19.36,23.36,78.58,55.17L190,219l21-39Z" fill="#575f64"/><path d="M346,180l-58.5,40L256,270H376l57-39.5L466,180Z" fill="#474f54"/><path d="M211,180l-90,90H256l90-90Z" fill="#fff5f5"/><path d="M256,180v90l90-90Z" fill="#efe2dd"/><path d="M512,195a15,15,0,0,0-15-15H466l-90,90H512Z" fill="#efe2dd"/><path d="M25.27,128.18A15,15,0,0,0,0,139.47V270H174.2Z" fill="#32393f"/></svg>