<?xml version="1.0" encoding="iso-8859-1"?>
<!-- Generator: Adobe Illustrator 21.0.0, SVG Export Plug-In . SVG Version: 6.00 Build 0)  -->
<svg xmlns="http://www.w3.org/2000/svg" xmlns:xlink="http://www.w3.org/1999/xlink" version="1.1" id="Capa_1" x="0px" y="0px" viewBox="0 0 512 512" style="enable-background:new 0 0 512 512;" xml:space="preserve" width="512" height="512">
<g>
	<g>
		<g>
			<g>
				<g>
					<g>
						<g>
							<g>
								<g>
									<g>
										<circle style="fill:#80DBFF;" cx="256" cy="256" r="256"/>
									</g>
								</g>
							</g>
						</g>
					</g>
				</g>
			</g>
		</g>
	</g>
	<path style="fill:#4AB8F7;" d="M512,256c0-19.494-2.19-38.476-6.318-56.722L387.243,80.839L138.862,95.198l-14.106,335.963   l74.522,74.522C217.524,509.81,236.506,512,256,512C397.385,512,512,397.385,512,256z"/>
	<g>
		<path style="fill:#495F7A;" d="M124.757,80.839v350.322h262.487V80.839H124.757z M179.167,405.667h-35v-35h35V405.667z     M179.167,352.333h-35v-35h35V352.333z M179.167,299h-35v-35h35V299z M179.167,245.667h-35v-35h35V245.667z M179.167,192.333h-35    v-35h35V192.333z M179.167,139h-35v-35h35V139z M367.833,405.667h-35v-35h35V405.667z M367.833,352.333h-35v-35h35V352.333z     M367.833,299h-35v-35h35V299z M367.833,245.667h-35v-35h35V245.667z M367.833,192.333h-35v-35h35V192.333z M367.833,139h-35v-35    h35V139z"/>
	</g>
	<g>
		<path style="fill:#385068;" d="M387.243,80.839H255.629v350.322h131.615V80.839z M367.833,405.667h-35v-35h35V405.667z     M367.833,352.333h-35v-35h35V352.333z M367.833,299h-35v-35h35V299z M367.833,245.667h-35v-35h35V245.667z M367.833,192.333h-35    v-35h35V192.333z M367.833,139h-35v-35h35V139z"/>
	</g>
	<g>
		<rect x="196.333" y="104" style="fill:#2C4054;" width="119.333" height="88.333"/>
	</g>
	<g>
		<rect x="255.629" y="104" style="fill:#243644;" width="60.038" height="88.333"/>
	</g>
	<g>
		<rect x="196.333" y="210.667" style="fill:#2C4054;" width="119.333" height="88.333"/>
	</g>
	<g>
		<rect x="255.629" y="210.667" style="fill:#243644;" width="60.038" height="88.333"/>
	</g>
	<g>
		<rect x="196.333" y="317.333" style="fill:#2C4054;" width="119.333" height="88.333"/>
	</g>
	<g>
		<rect x="255.629" y="317.333" style="fill:#243644;" width="60.038" height="88.333"/>
	</g>
</g>















</svg>
