<?xml version="1.0" encoding="iso-8859-1"?>
<!-- Generator: Adobe Illustrator 19.0.0, SVG Export Plug-In . SVG Version: 6.00 Build 0)  -->
<svg version="1.1" id="Capa_1" xmlns="http://www.w3.org/2000/svg" xmlns:xlink="http://www.w3.org/1999/xlink" x="0px" y="0px"
	 viewBox="0 0 512 512" style="enable-background:new 0 0 512 512;" xml:space="preserve">
<path style="fill:#F3F2ED;" d="M480,400H16c-4.418,0-8-3.582-8-8V8c0-4.418,3.582-8,8-8h464c4.418,0,8,3.582,8,8v384
	C488,396.418,484.418,400,480,400z"/>
<path style="fill:#E7E5DA;" d="M32,392V8c0-4.418,3.582-8,8-8H16c-4.418,0-8,3.582-8,8v384c0,4.418,3.582,8,8,8h24
	C35.582,400,32,396.418,32,392z"/>
<path style="fill:#81DADD;" d="M8,312l83.108-75.553c2.839-2.581,7.112-2.783,10.181-0.48L192,304l186.346-178.581
	c3.142-3.011,8.115-2.958,11.192,0.119L488,224v168c0,4.418-3.582,8-8,8H16c-4.418,0-8-3.582-8-8V312z"/>
<path style="fill:#43C8CB;" d="M8,312v80c0,4.418,3.582,8,8,8h24c-4.418,0-8-3.582-8-8V290.19L8,312z"/>
<path style="fill:#FFE340;" d="M192,72c-30.878,0-56,25.122-56,56s25.122,56,56,56s56-25.122,56-56S222.878,72,192,72z"/>
<path style="fill:#FFDA00;" d="M160,128c0-26.759,18.871-49.182,44-54.692C200.131,72.46,196.119,72,192,72
	c-30.878,0-56,25.122-56,56s25.122,56,56,56c4.119,0,8.131-0.46,12-1.308C178.871,177.182,160,154.759,160,128z"/>
<g>
	<path style="fill:#FF9B29;" d="M192,56c-4.418,0-8-3.582-8-8V32c0-4.418,3.582-8,8-8s8,3.582,8,8v16C200,52.418,196.418,56,192,56z
		"/>
	<path style="fill:#FF9B29;" d="M152.007,66.719c-2.765,0-5.454-1.435-6.936-4.001l-8-13.856c-2.209-3.826-0.898-8.719,2.928-10.928
		c3.826-2.209,8.719-0.898,10.928,2.928l8,13.856C161.944,59.941,158.074,66.719,152.007,66.719z"/>
	<path style="fill:#FF9B29;" d="M122.71,96.001c-1.357,0-2.733-0.346-3.993-1.073l-13.856-8c-3.826-2.209-5.137-7.102-2.928-10.928
		c2.209-3.827,7.103-5.138,10.928-2.928l13.856,8c2.981,1.721,4.554,5.274,3.817,8.639C129.739,93.343,126.426,96.001,122.71,96.001
		z"/>
	<path style="fill:#FF9B29;" d="M112,136H96c-4.418,0-8-3.582-8-8s3.582-8,8-8h16c4.418,0,8,3.582,8,8S116.418,136,112,136z"/>
	<path style="fill:#FF9B29;" d="M108.869,184.001c-3.716,0-7.029-2.658-7.824-6.29c-0.737-3.364,0.836-6.918,3.817-8.639l13.856-8
		c3.826-2.209,8.719-0.898,10.928,2.928s0.898,8.719-2.928,10.928l-13.856,8C111.602,183.655,110.226,184.001,108.869,184.001z"/>
	<path style="fill:#FF9B29;" d="M143.993,219.14c-6.066,0-9.937-6.778-6.921-12.001l8-13.856c2.209-3.826,7.102-5.139,10.928-2.928
		c3.826,2.209,5.137,7.102,2.928,10.928l-8,13.856C149.446,217.705,146.757,219.14,143.993,219.14z"/>
	<path style="fill:#FF9B29;" d="M192,232c-4.418,0-8-3.582-8-8v-16c0-4.418,3.582-8,8-8s8,3.582,8,8v16
		C200,228.418,196.418,232,192,232z"/>
	<path style="fill:#FF9B29;" d="M240.007,219.14c-2.765,0-5.454-1.435-6.936-4.001l-8-13.856c-2.209-3.826-0.898-8.719,2.928-10.928
		c3.826-2.208,8.719-0.898,10.928,2.928l8,13.856C249.944,212.362,246.074,219.14,240.007,219.14z"/>
	<path style="fill:#FF9B29;" d="M275.131,184.001c-1.357,0-2.732-0.346-3.992-1.073l-13.856-8
		c-3.826-2.209-5.138-7.102-2.928-10.928c2.209-3.827,7.102-5.138,10.928-2.928l13.856,8c2.981,1.721,4.555,5.274,3.817,8.639
		C282.159,181.343,278.847,184.001,275.131,184.001z"/>
	<path style="fill:#FF9B29;" d="M288,136h-16c-4.418,0-8-3.582-8-8s3.582-8,8-8h16c4.418,0,8,3.582,8,8S292.418,136,288,136z"/>
	<path style="fill:#FF9B29;" d="M261.29,96.001c-3.716,0-7.028-2.658-7.825-6.29c-0.738-3.364,0.836-6.918,3.817-8.639l13.856-8
		c3.828-2.211,8.72-0.897,10.928,2.928c2.21,3.826,0.898,8.719-2.928,10.928l-13.856,8C264.022,95.655,262.646,96.001,261.29,96.001
		z"/>
	<path style="fill:#FF9B29;" d="M231.993,66.719c-6.066,0-9.937-6.778-6.921-12.001l8-13.856c2.209-3.827,7.102-5.138,10.928-2.928
		c3.826,2.209,5.138,7.102,2.928,10.928l-8,13.856C237.446,65.284,234.757,66.719,231.993,66.719z"/>
</g>
<path style="fill:#F3F2ED;" d="M502.565,412.089c-0.679-0.933-16.94-23.1-45.432-45.486C419.164,336.769,377.449,321,336.5,321
	s-82.664,15.769-120.634,45.603c-28.491,22.386-44.753,44.553-45.432,45.486c-1.913,2.63-1.913,6.192,0,8.822
	c0.679,0.933,16.94,23.1,45.432,45.486C253.836,496.231,295.551,512,336.5,512s82.664-15.769,120.634-45.603
	c28.491-22.386,44.753-44.553,45.432-45.486C504.478,418.281,504.478,414.719,502.565,412.089z"/>
<path style="fill:#E7E5DA;" d="M472.634,449.897C434.664,479.731,392.949,495.5,352,495.5s-82.664-15.769-120.634-45.603
	c-28.491-22.386-44.753-44.553-45.432-45.486c-1.913-2.63-1.913-6.192,0-8.822c0.26-0.357,2.811-3.833,7.449-9.234
	c-14.445,14.141-22.477,25.084-22.949,25.734c-1.913,2.63-1.913,6.192,0,8.822c0.679,0.933,16.94,23.1,45.432,45.486
	C253.836,496.231,295.551,512,336.5,512s82.664-15.769,120.634-45.603c17.585-13.817,30.504-27.543,37.983-36.252
	C488.811,436.317,481.291,443.095,472.634,449.897z"/>
<path style="fill:#809292;" d="M336.5,345c-39.425,0-71.5,32.075-71.5,71.5s32.075,71.5,71.5,71.5s71.5-32.075,71.5-71.5
	S375.925,345,336.5,345z"/>
<path style="fill:#6C8181;" d="M352,472.5c-39.425,0-71.5-32.075-71.5-71.5c0-15.766,5.14-30.348,13.817-42.182
	C276.559,371.839,265,392.841,265,416.5c0,39.425,32.075,71.5,71.5,71.5c23.659,0,44.661-11.559,57.683-29.318
	C382.348,467.36,367.766,472.5,352,472.5z"/>
<circle style="fill:#F3F2ED;" cx="360" cy="384" r="16"/>
<g>
</g>
<g>
</g>
<g>
</g>
<g>
</g>
<g>
</g>
<g>
</g>
<g>
</g>
<g>
</g>
<g>
</g>
<g>
</g>
<g>
</g>
<g>
</g>
<g>
</g>
<g>
</g>
<g>
</g>
</svg>
